<svg width="64" height="64" viewBox="0 0 64 64" fill="none" xmlns="http://www.w3.org/2000/svg">
<path d="M30.002 4.00184C27.5056 10.1075 26.0067 14.1086 23.232 20.0411C24.9318 21.8453 27.0244 23.9481 30.415 26.3182C26.7663 24.8106 24.2792 23.3049 22.4152 21.7403C18.8624 29.16 13.2926 39.7091 2 60C10.8829 54.8747 17.758 51.7159 24.1722 50.5069C23.8854 49.2601 23.7437 47.9843 23.75 46.7049L23.7593 46.4266C23.9031 40.7338 26.8603 36.3678 30.3652 36.6645C33.8701 36.9612 36.5969 41.81 36.4623 47.5011C36.4371 48.5276 36.3149 49.5495 36.0972 50.553C42.4451 51.7915 49.252 54.9393 58.0095 59.9982C56.2801 56.8209 54.7444 53.9514 53.2657 51.2257C50.9519 49.4307 48.5311 47.0883 43.6048 44.5542C46.9953 45.437 49.4142 46.4543 51.3059 47.5877C36.3351 19.7425 35.1348 16.0363 29.9983 4L30.002 4.00184ZM58.2898 55.0001V53.4741H57.7127V53.2622H59.0955V53.4741H58.5184V55.0001H58.2879H58.2898ZM59.337 55.0001V53.2622H59.6836L60.0966 54.4914C60.1353 54.6075 60.163 54.6923 60.174 54.7513C60.1925 54.6941 60.2312 54.5983 60.2699 54.473L60.6829 53.264H61V55.0019H60.7788V53.5423L60.2699 55.0019H60.0579L59.5582 53.5239V55.0019H59.337V55.0001Z" fill="white"/>
</svg>
