<svg width="64" height="64" viewBox="0 0 64 64" fill="none" xmlns="http://www.w3.org/2000/svg">
<path d="M51.2529 14.5457C47.6193 12.907 43.7244 11.6957 39.6513 11.007C39.6151 11 39.5775 11.0045 39.5439 11.0198C39.5103 11.0352 39.4823 11.0606 39.4637 11.0925C38.965 11.9689 38.4092 13.1112 38.0197 14.0137C33.6999 13.3683 29.3082 13.3683 24.9884 14.0137C24.5546 13.0135 24.0654 12.0383 23.5231 11.0925C23.5047 11.0602 23.4769 11.0342 23.4433 11.0181C23.4098 11.0019 23.3722 10.9964 23.3354 11.0023C19.2648 11.691 15.3699 12.9022 11.7338 14.5433C11.7025 14.5564 11.676 14.5788 11.6578 14.6074C4.26699 25.4728 2.24116 36.0698 3.23626 46.5338C3.23903 46.5595 3.24699 46.5843 3.25964 46.6067C3.2723 46.6292 3.28939 46.6488 3.30988 46.6645C7.62372 49.8052 12.4352 52.1977 17.5429 53.7418C17.5786 53.7528 17.6166 53.7527 17.6522 53.7417C17.6878 53.7307 17.7193 53.7092 17.7424 53.6801C18.8397 52.2076 19.8181 50.652 20.6541 49.018C20.704 48.923 20.6565 48.809 20.5568 48.771C19.0225 48.1933 17.536 47.4961 16.1109 46.6858C16.0852 46.6712 16.0637 46.6505 16.0481 46.6255C16.0324 46.6004 16.0233 46.5719 16.0214 46.5425C16.0195 46.5131 16.025 46.4837 16.0373 46.4569C16.0496 46.4301 16.0683 46.4067 16.0919 46.389C16.3911 46.1681 16.6903 45.9377 16.9753 45.7074C17.001 45.6866 17.0319 45.6735 17.0646 45.6693C17.0973 45.6651 17.1305 45.67 17.1606 45.6836C26.487 49.873 36.5877 49.873 45.8048 45.6836C45.835 45.6692 45.8685 45.6636 45.9017 45.6674C45.9349 45.6712 45.9663 45.6842 45.9924 45.705C46.2774 45.9377 46.5743 46.1681 46.8759 46.389C46.8997 46.4064 46.9188 46.4294 46.9314 46.4559C46.9441 46.4825 46.95 46.5118 46.9486 46.5412C46.9472 46.5706 46.9385 46.5993 46.9234 46.6245C46.9082 46.6497 46.887 46.6708 46.8617 46.6858C45.4415 47.5028 43.9642 48.1939 42.4134 48.7687C42.3896 48.7773 42.3679 48.7909 42.3498 48.8086C42.3316 48.8263 42.3175 48.8477 42.3083 48.8713C42.299 48.8949 42.295 48.9202 42.2963 48.9455C42.2976 48.9708 42.3044 48.9955 42.316 49.018C43.171 50.6496 44.1495 52.2028 45.2253 53.6777C45.2477 53.7079 45.2789 53.7306 45.3146 53.7425C45.3503 53.7544 45.3888 53.755 45.4248 53.7442C50.5413 52.2044 55.3607 49.8107 59.6793 46.6645C59.7003 46.6497 59.718 46.6307 59.7311 46.6086C59.7442 46.5864 59.7525 46.5618 59.7553 46.5362C60.9427 34.4382 57.7651 23.9267 51.3266 14.6122C51.3108 14.5819 51.2847 14.5583 51.2529 14.5457ZM22.0482 40.1619C19.241 40.1619 16.9255 37.623 16.9255 34.5095C16.9255 31.3936 19.1959 28.8571 22.0482 28.8571C24.9219 28.8571 27.2161 31.4149 27.171 34.5095C27.171 37.6254 24.9005 40.1619 22.0482 40.1619ZM40.9884 40.1619C38.1789 40.1619 35.8657 37.623 35.8657 34.5095C35.8657 31.3936 38.1337 28.8571 40.9884 28.8571C43.8621 28.8571 46.1563 31.4149 46.1112 34.5095C46.1112 37.6254 43.8645 40.1619 40.9884 40.1619Z" fill="white"/>
</svg>
