<svg width="64" height="64" viewBox="0 0 64 64" fill="none" xmlns="http://www.w3.org/2000/svg">
<path d="M24.6118 21.0025C24.6312 21.0025 24.6206 21.0025 24.6118 21.0025V21.0025ZM18.1004 17.7349C18.1197 17.7349 18.1092 17.7349 18.1004 17.7349V17.7349ZM57.0493 22.7786C55.8748 19.944 53.4907 16.8884 51.6278 15.9129C53.1509 18.9031 54.0313 21.9144 54.3606 24.15L54.3694 24.1977C51.3073 16.5473 46.127 13.4653 41.8888 6.75335C41.6775 6.41404 41.4662 6.07296 41.2549 5.71421C41.144 5.53042 41.0524 5.34663 40.952 5.15047C40.7791 4.80844 40.6467 4.44722 40.5576 4.07422C40.5576 4.03888 40.5312 4.0106 40.4942 4.00177H40.4397L40.4309 4.0106C40.422 4.0106 40.4115 4.01944 40.4115 4.01944C40.4115 4.01944 40.4115 4.0106 40.4203 4C34.4036 7.53446 31.9191 13.7286 31.2764 17.6589C29.421 17.7705 27.6037 18.2359 25.9218 19.0303C25.7684 19.1065 25.6483 19.2367 25.5843 19.396C25.5203 19.5554 25.517 19.7328 25.575 19.8945C25.6063 19.984 25.6559 20.0659 25.7205 20.1352C25.7852 20.2044 25.8634 20.2594 25.9504 20.2966C26.0373 20.3338 26.131 20.3525 26.2255 20.3514C26.3201 20.3503 26.4133 20.3295 26.4994 20.2903C27.9665 19.5977 29.5496 19.1859 31.1673 19.0762L31.324 19.0568C31.5441 19.048 31.773 19.0374 31.9931 19.0374C33.3054 19.0289 34.6121 19.2116 35.8721 19.5799L36.0922 19.6453C36.3035 19.7089 36.506 19.7814 36.7173 19.8574C36.8635 19.9121 37.0202 19.9687 37.1663 20.0323C37.2861 20.0765 37.4058 20.133 37.5238 20.179C37.7086 20.2638 37.8918 20.3557 38.0749 20.4476L38.3214 20.566C38.5045 20.6597 38.6806 20.7586 38.8549 20.8611C38.9659 20.9265 39.075 20.9902 39.1842 21.0644C41.1425 22.2779 42.7667 23.9645 43.9084 25.9702C42.4699 24.9594 39.8815 23.9467 37.3988 24.3885C47.1184 29.2661 44.5053 46.0636 31.0335 45.4274C29.5461 45.3712 28.0831 45.0305 26.723 44.4236C26.5696 44.3523 26.417 44.2793 26.2652 44.2045C22.9619 42.492 20.238 39.2509 19.8999 35.3206C19.8999 35.3206 21.1466 30.6551 28.8307 30.6551C29.6671 30.6551 32.0424 28.3242 32.0864 27.6526C32.067 27.4317 27.3622 25.5549 25.5292 23.7417C24.5484 22.7751 24.0906 22.3067 23.6768 21.9551C23.4536 21.7621 23.2177 21.5844 22.9707 21.4231C22.3564 19.2598 22.3314 16.9706 22.8985 14.7942C20.1182 16.0649 17.963 18.0725 16.3959 19.8397H16.3801C15.3077 18.4772 15.3887 13.9849 15.4433 13.0465C15.4345 12.9828 14.6457 13.4511 14.5435 13.5254C13.5998 14.2058 12.7106 14.9621 11.9023 15.7998C10.9763 16.7401 10.13 17.7563 9.37207 18.8377C7.63664 21.3071 6.40564 24.097 5.7501 27.0465C5.57105 27.875 5.42479 28.7104 5.31166 29.5506C5.2761 29.7613 5.24557 29.9729 5.2201 30.1851C5.14436 30.7014 5.09207 31.2209 5.06339 31.742L5.05458 31.825C5.03874 32.129 5.01937 32.4241 5 32.7281V32.8642C5 47.8503 17.1055 60 32.0371 60C45.4069 60 56.5123 50.252 58.6868 37.4572C58.7344 37.1091 58.7696 36.7591 58.8066 36.4092C59.3471 31.7597 58.752 26.8644 57.0546 22.7786H57.0493Z" fill="white"/>
</svg>
