<svg width="64" height="64" viewBox="0 0 64 64" fill="none" xmlns="http://www.w3.org/2000/svg">
<path d="M31.7082 5.00081C30.878 4.98727 30.0535 5.14312 29.2836 5.45915C28.5138 5.77519 27.8141 6.24497 27.2261 6.84068L7.37059 27.4976C-0.152435 35.1332 12.2391 34.4987 16.7128 37.3931C18.7868 38.7683 10.0673 40.5276 11.8442 42.34C13.5841 44.1525 22.312 45.814 24.0434 47.5819C25.7833 49.3857 20.5283 51.2976 22.2597 53.11C23.9472 54.9225 27.999 53.2078 28.7196 57.3162C29.2478 60.3529 36.1464 58.844 39.2312 56.2445C41.1567 54.5744 35.9 54.5744 37.6399 52.762C41.9819 48.3055 45.8312 50.7609 47.4225 46.6439C48.2933 44.4474 40.8665 42.875 42.8426 41.4553C47.571 38.079 64.9206 36.3643 56.9233 28.2384L36.3388 6.84068C35.0838 5.64691 33.4256 4.98831 31.7065 5.00081H31.7082ZM31.8753 6.96585C33.0701 6.97443 34.2665 7.42196 35.1272 8.29646L42.9843 16.4327C43.7133 17.1649 43.7133 18.6841 43.2746 19.1213L39.3713 15.8977L38.5984 20.6491L35.3735 18.8813L30.1169 22.2575L28.3855 15.1672L25.5909 21.3299L18.5944 21.2853C17.2494 21.2853 17.4435 19.8655 18.8408 18.4457C21.583 15.3559 26.9359 10.1226 28.6234 8.31018C29.4942 7.39967 30.6805 6.96243 31.8753 6.971V6.96585ZM53.8318 44.1713C52.1611 44.2331 50.4652 45.0818 50.0264 46.6456C50.0264 47.6727 57.8836 48.2626 57.4532 46.4039C57.136 44.8315 55.5024 44.1079 53.8318 44.1713ZM19.2981 48.6193C17.03 48.753 14.6051 50.4317 16.5288 52.0761C18.3041 53.6485 21.0109 51.7366 21.8733 49.54C21.3366 48.8164 20.3359 48.5575 19.3065 48.6295H19.2981V48.6193ZM49.0679 48.7976C46.8437 50.8518 49.4459 53.0123 51.6161 51.5925C52.1966 51.1913 51.5722 49.288 49.0679 48.7976Z" fill="white"/>
</svg>
