<svg width="64" height="64" viewBox="0 0 64 64" fill="none" xmlns="http://www.w3.org/2000/svg">
<path d="M8.95138 4.34966C6.29076 5.93174 1.05146 11.962 1 13.544V16.1713C1 19.4864 4.09708 22.4136 6.90636 22.4136C10.2817 22.4136 13.1024 19.6067 13.1024 16.2744C13.1024 19.6067 15.8107 22.4136 19.1956 22.4136C22.5709 22.4136 25.201 19.6067 25.201 16.2744C25.201 19.6067 28.0904 22.4136 31.4657 22.4136H31.5267C34.9115 22.4136 37.799 19.6067 37.799 16.2744C37.799 19.6067 40.431 22.4136 43.8063 22.4136C47.1817 22.4136 49.8995 19.6067 49.8995 16.2744C49.8995 19.6067 52.7107 22.4136 56.0841 22.4136C58.9029 22.4136 62 19.4864 62 16.1713V13.544C61.939 11.962 56.7092 5.93174 54.0391 4.34966C45.7694 4.05159 40.0422 4 31.5057 4C22.9597 4.00955 11.3166 4.13948 8.96282 4.34966H8.95138ZM25.161 20.8468C24.8361 21.4072 24.4352 21.9197 23.9698 22.3696V22.3792C22.6441 23.6736 20.8669 24.3982 19.0164 24.3988C17.1629 24.4023 15.3828 23.6724 14.063 22.3677C13.6109 21.9249 13.2257 21.4183 12.9195 20.864C12.6012 21.4315 12.1571 21.9187 11.6902 22.3677C10.3682 23.6692 8.58954 24.3986 6.73674 24.3988H6.72721C6.49931 24.3896 6.27453 24.3425 6.06205 24.2593C5.83035 26.7609 5.68795 29.27 5.63513 31.7818V31.7914C5.6256 32.7983 5.6256 33.6123 5.61417 34.7568C5.67515 40.7087 5.02906 54.034 8.23667 57.309C13.1996 58.4631 22.3327 58.9904 31.4828 59H31.4924C40.654 58.9904 49.7756 58.4631 54.7385 57.309C57.9462 54.036 57.3001 40.7087 57.3611 34.7568C57.3515 33.6123 57.3515 32.7983 57.3401 31.7914V31.7818C57.2921 29.2698 57.1497 26.7606 56.9132 24.2593C56.701 24.3434 56.476 24.3906 56.248 24.3988H56.2385C54.3857 24.3986 52.607 23.6692 51.2851 22.3677H51.2946C50.8277 21.9187 50.3817 21.4334 50.0653 20.864H50.0558C49.7525 21.4177 49.3705 21.9242 48.9218 22.3677C47.5997 23.6689 45.821 24.3978 43.9683 24.3978C42.1157 24.3978 40.337 23.6689 39.0149 22.3677C38.5567 21.9232 38.1623 21.4172 37.8428 20.864L37.8218 20.8334C37.494 21.4219 37.0976 21.9283 36.6497 22.3677C35.3278 23.6692 33.5491 24.3986 31.6963 24.3988H31.6868C31.6277 24.3988 31.5572 24.3988 31.4886 24.3893C31.42 24.3988 31.3494 24.3988 31.2808 24.3988H31.2713C29.4214 24.4007 27.6455 23.6708 26.3293 22.3677C25.8713 21.9259 25.4803 21.4193 25.1686 20.864L25.1477 20.8334L25.161 20.8468ZM20.0685 27.4464C22.083 27.456 23.8707 27.4464 26.093 29.8749C27.8388 29.6972 29.6665 29.6074 31.4924 29.6074C33.3182 29.6074 35.146 29.6972 36.8918 29.8749C39.1159 27.4464 40.9018 27.4464 42.9163 27.4464H42.9258C43.8788 27.4464 47.6906 27.4464 50.3417 34.9211L53.191 45.1798C55.3046 52.8131 52.5144 53.0042 49.0418 53.0042C43.8807 52.8131 41.0218 49.0528 41.0218 45.2906C38.163 45.7702 34.8258 45.9995 31.4924 45.9995C28.159 45.9995 24.8218 45.7702 21.9724 45.2906C21.9724 49.0528 19.1136 52.8131 13.9524 53.0042C10.4685 52.9946 7.67825 52.8131 9.79188 45.1798L12.6412 34.9211C15.3018 27.4464 19.1136 27.4464 20.0665 27.4464H20.0685ZM31.4943 33.3276C31.4848 33.3276 26.0644 38.3337 25.0829 40.1049L28.6354 39.9654V43.0703C28.6354 43.2213 30.0668 43.1602 31.4943 43.0914C32.9218 43.1602 34.3436 43.2213 34.3436 43.0703V39.9654L37.9057 40.1049C36.9242 38.3337 31.4943 33.3276 31.4943 33.3276Z" fill="white"/>
</svg>
