<svg width="64" height="64" viewBox="0 0 64 64" fill="none" xmlns="http://www.w3.org/2000/svg">
<path d="M24.9868 46.6933C16.7468 48.9867 29.9735 53.7333 40.4535 49.36C39.4364 48.9645 38.4551 48.4827 37.5201 47.92C33.8816 48.7484 30.1232 48.911 26.4268 48.4C22.9335 48 24.9868 46.6933 24.9868 46.6933Z" fill="white"/>
<path d="M39.2 42.2133C34.5068 43.234 29.6766 43.4683 24.9067 42.9067C21.4133 42.5333 23.7067 40.8533 23.7067 40.8533C14.64 43.84 28.7467 47.2533 41.4133 43.52C40.5898 43.2494 39.8347 42.8037 39.2 42.2133Z" fill="white"/>
<path d="M44.0533 16.2667C44.0533 16.2667 25.7333 20.8267 34.48 30.9067C34.8213 31.3158 35.0755 31.7901 35.2273 32.3008C35.3791 32.8114 35.4252 33.3477 35.3628 33.8768C35.3004 34.4058 35.1309 34.9166 34.8645 35.378C34.598 35.8393 34.2404 36.2415 33.8133 36.56C33.8133 36.56 40.3733 33.1733 37.36 28.9333C34.3467 24.6933 32.4 23.0133 44.0533 16.2667Z" fill="white"/>
<path d="M48.3466 51.04C48.3466 51.04 49.84 52.2667 46.6666 53.2267C40.6133 55.0667 21.52 55.6267 16.2133 53.2267C14.2933 52.4 17.8666 51.2533 18.88 51.0133C19.4806 50.8583 20.0998 50.7865 20.72 50.8C18.5866 49.3067 6.98664 53.7333 14.8266 55.0133C36.2933 58.6667 53.8666 53.52 48.3466 51.04Z" fill="white"/>
<path d="M40.9867 38.0267C41.7709 37.5307 42.591 37.094 43.4401 36.72C43.4401 36.72 39.4134 37.44 35.4401 37.7867C31.1674 38.1991 26.8671 38.2437 22.5867 37.92C16.2401 37.0933 25.9734 34.6667 25.9734 34.6667C23.0443 34.644 20.1532 35.3302 17.5467 36.6667C12.0534 39.4133 31.1201 40.6133 40.9867 38.0267Z" fill="white"/>
<path d="M43.4133 44.5333C43.355 44.6239 43.2831 44.7049 43.2 44.7733C56.5333 41.2533 51.6799 32.3733 45.2799 34.6133C44.9269 34.7432 44.6205 34.9753 44.3999 35.28C44.3999 35.28 44.7733 35.1467 45.5466 34.96C48.7999 34.2933 53.3333 39.3067 43.4133 44.5333Z" fill="white"/>
<path d="M32.0001 34.6667C30.0268 30.2133 23.3068 26.2933 32.0001 19.44C42.9068 10.88 37.3335 5.33333 37.3335 5.33333C39.5735 14.16 29.3335 16.8267 25.7601 22.32C23.2801 26.08 27.0135 30.1067 32.0001 34.6667Z" fill="white"/>
<path d="M43.7601 56.8533C35.7034 58.2327 27.4819 58.3586 19.3867 57.2267C19.3867 57.2267 20.6134 58.24 26.9601 58.64C36.5867 59.2533 51.3601 58.32 51.7334 53.76C51.7334 53.76 51.0401 55.4667 43.7601 56.8533Z" fill="white"/>
</svg>
