<svg width="64" height="64" viewBox="0 0 64 64" fill="none" xmlns="http://www.w3.org/2000/svg">
<path d="M29.9888 16.811C33.3938 15.8264 36.6703 14.9274 39.7796 14.0741C45.2858 12.5632 50.2677 11.1962 54.5104 9.75294C49.9027 15.8209 42.2418 24.0192 33.8575 25.0991C31.9894 25.3397 30.1407 25.4673 28.3751 25.5892C22.2162 26.0144 17.0675 26.3698 15.6285 31.2082C13.9234 36.9413 19.9203 42.2941 26.1402 41.004C32.785 39.6258 31.35 32.117 27.7155 27.0037L28.1918 26.9767C28.0808 26.7865 27.9702 26.5942 27.8603 26.3999C29.5842 26.2951 30.0634 26.2706 31.258 26.2096C32.0255 26.1704 33.089 26.116 34.9668 26.0156C41.0688 31.5318 43.6927 33.6858 52.083 40.0512C53.3016 40.9191 54.6407 41.8702 56.1264 42.9246L55.8426 42.8948L57 43.7697C49.3442 43.1889 42.8233 41.5032 37.2992 37.4522C37.0616 37.3137 36.8202 37.1712 36.5742 37.0245C38.3198 41.3929 42.0507 51.3073 42.8589 59C38.9725 53.4323 37.4992 51.3863 31.4763 47.3696C28.9374 45.6764 26.5573 44.5215 24.3776 43.4639C19.948 41.3146 16.3459 39.5667 13.9198 34.5181C10.5843 28.0081 12.829 22.2656 22.8166 18.9735C20.8138 13.4247 12.2701 13.7369 8.50885 13.8744C7.82528 13.8994 7.29967 13.9186 7 13.8958L7.10466 13.844L7.47677 13.6607C9.5247 12.653 11.561 11.651 15.8142 8.57919C24.3541 2.4114 33.3793 3.51136 38.1962 5.88185C38.3564 5.95931 38.5125 6.03977 38.6641 6.12314L38.6691 6.12583C37.8694 6.15614 37.1291 6.21171 36.4446 6.29014C34.8501 6.47283 33.5576 6.77961 32.5182 7.18038C27.1235 9.26057 28.5502 13.8731 29.9888 16.811Z" fill="white"/>
</svg>
