<svg width="64" height="64" viewBox="0 0 64 64" fill="none" xmlns="http://www.w3.org/2000/svg">
<path d="M6.39261 20.7968L28.19 30.8891C29.9661 31.6901 32.9531 31.6901 34.81 30.8891L56.6073 20.7968C58.4642 19.9959 58.4642 18.6342 56.6073 17.7531L34.81 7.66081C33.0339 6.77973 30.0468 6.77973 28.19 7.66081L6.39261 17.7531C4.5358 18.5541 4.5358 19.9158 6.39261 20.7968Z" fill="white"/>
<path d="M28.19 42.9841L6.39261 32.8918C4.5358 32.0106 4.5358 30.649 6.39261 29.848L13.8199 26.4038L28.19 33.052C30.0468 33.933 33.0339 33.933 34.81 33.052L49.1801 26.4038L56.6073 29.848C58.4642 30.7291 58.4642 32.0908 56.6073 32.8918L34.81 42.9841C32.9531 43.8651 29.9661 43.8651 28.19 42.9841Z" fill="white"/>
<path d="M28.19 55.3993L6.39261 45.3069C4.5358 44.4259 4.5358 43.0642 6.39261 42.2632L13.9813 38.7389L28.1092 45.3069C29.9661 46.1881 32.9531 46.1881 34.7292 45.3069L48.8571 38.7389L56.446 42.2632C58.3027 43.1444 58.3027 44.5061 56.446 45.3069L34.6486 55.3993C32.9531 56.2002 29.9661 56.2002 28.19 55.3993Z" fill="white"/>
</svg>
