<svg width="64" height="64" viewBox="0 0 64 64" fill="none" xmlns="http://www.w3.org/2000/svg">
<path d="M3.58667 24.3253V26.416H3.68C3.86667 26.1227 4.10933 25.8293 4.41067 25.528C4.74065 25.2064 5.11405 24.9326 5.52 24.7147C6.54476 24.1579 7.69519 23.8733 8.86133 23.888C9.84517 23.8793 10.8198 24.0776 11.7221 24.4699C12.6244 24.8622 13.4341 25.4399 14.0987 26.1653C14.744 26.8747 15.2427 27.7067 15.5947 28.6613C15.9493 29.6213 16.128 30.648 16.128 31.752C16.128 32.8533 15.9547 33.888 15.6107 34.8533C15.2904 35.7826 14.7932 36.641 14.1467 37.3813C13.5033 38.1066 12.7171 38.6912 11.8373 39.0987C10.9307 39.5253 9.90933 39.7387 8.76533 39.7387C7.704 39.7387 6.73067 39.5173 5.848 39.0827C5.01494 38.69 4.30764 38.0732 3.80533 37.3013H3.74133V46.7893H0V24.32L3.58667 24.3253ZM12.3227 31.752C12.3227 31.168 12.232 30.592 12.056 30.0187C11.8861 29.4604 11.6169 28.9374 11.2613 28.4747C10.9009 28.0111 10.443 27.6324 9.92 27.3653C9.32849 27.074 8.67517 26.9303 8.016 26.9467C7.37513 26.9355 6.74165 27.0849 6.17333 27.3813C5.64394 27.664 5.17331 28.045 4.78667 28.504C4.39969 28.9644 4.10296 29.4937 3.912 30.064C3.51663 31.1903 3.51663 32.4177 3.912 33.544C4.10516 34.1093 4.40176 34.6338 4.78667 35.0907C5.1711 35.547 5.64247 35.9223 6.17333 36.1947C6.71467 36.4747 7.33067 36.6187 8.016 36.6187C8.64203 36.6337 9.26269 36.4999 9.82691 36.2283C10.3911 35.9566 10.8827 35.5548 11.2613 35.056C11.6133 34.6 11.8773 34.08 12.0533 33.496C12.2277 32.931 12.3176 32.3433 12.32 31.752H12.3227ZM48.808 23.608V40.2027C48.808 41.096 48.7333 41.944 48.5893 42.7413C48.4644 43.4896 48.1827 44.203 47.7627 44.8347C47.3415 45.4408 46.7724 45.9292 46.1093 46.2533C45.4107 46.6053 44.504 46.784 43.3787 46.784C43.0665 46.7831 42.7547 46.7617 42.4453 46.72C42.194 46.6884 41.944 46.6466 41.696 46.5947L42.008 43.416C42.3454 43.4956 42.6907 43.5377 43.0373 43.5413C43.4066 43.5569 43.7729 43.4702 44.096 43.2907C44.3648 43.1249 44.5812 42.8863 44.72 42.6027C44.8667 42.312 44.96 41.976 45 41.5893C45.0427 41.2053 45.064 40.7947 45.064 40.36V23.608H48.808ZM61.5653 28.3147C61.1925 27.844 60.7257 27.4562 60.1947 27.176C59.6119 26.8547 58.9561 26.6894 58.2907 26.696C57.688 26.696 57.1387 26.8187 56.6373 27.0693C56.4021 27.1778 56.205 27.3546 56.0718 27.5768C55.9386 27.7989 55.8755 28.0561 55.8907 28.3147C55.8794 28.5813 55.9534 28.8445 56.1021 29.0661C56.2508 29.2877 56.4663 29.4561 56.7173 29.5467C57.2667 29.7867 58.072 30.032 59.1333 30.2827C59.6933 30.408 60.2613 30.5733 60.8347 30.7813C61.4053 30.9867 61.928 31.2613 62.3947 31.608C62.8605 31.9493 63.2486 32.3856 63.5333 32.888C63.824 33.3947 63.968 34.016 63.968 34.7413C63.968 35.6587 63.7973 36.432 63.456 37.0667C63.1093 37.7013 62.6533 38.2133 62.0827 38.6133C61.4759 39.0217 60.7973 39.3112 60.0827 39.4667C59.3107 39.6462 58.5206 39.7366 57.728 39.736C56.5647 39.736 55.4117 39.5189 54.328 39.096C53.2832 38.7084 52.3428 38.083 51.5813 37.2693L54.048 34.96C54.5037 35.5436 55.0863 36.0157 55.7516 36.3405C56.417 36.6653 57.1476 36.8343 57.888 36.8347C58.1547 36.8347 58.432 36.8027 58.7147 36.7413C58.9858 36.6806 59.2464 36.58 59.488 36.4427C59.7244 36.3118 59.9242 36.1239 60.0693 35.896C60.2205 35.6416 60.2954 35.3491 60.2853 35.0533C60.2978 34.7692 60.2226 34.4882 60.07 34.2482C59.9173 34.0083 59.6946 33.8211 59.432 33.712C58.856 33.4453 57.9973 33.1733 56.8533 32.904C56.297 32.7802 55.7499 32.618 55.216 32.4187C54.7073 32.2324 54.2298 31.9698 53.8 31.64C53.3826 31.3172 53.0412 30.9067 52.8 30.4373C52.533 29.8835 52.4049 29.2731 52.4267 28.6587C52.4267 27.8293 52.5973 27.112 52.9387 26.5093C53.2722 25.9173 53.7375 25.41 54.2987 25.0267C54.8587 24.64 55.4907 24.3547 56.2 24.168C56.9128 23.9803 57.6469 23.8861 58.384 23.888C59.464 23.888 60.52 24.0747 61.5493 24.448C62.5787 24.8213 63.3947 25.3947 64 26.1627L61.5653 28.3147ZM39.4587 36.1307L41.6907 35.4587L42.128 36.8053L39.9067 37.56L41.2853 39.5173L40.1227 40.36L38.672 38.4373L37.2587 40.3067L36.1307 39.448L37.5093 37.56L35.2693 36.7547L35.7093 35.4053L37.9573 36.128V33.8027H39.4613V36.128L39.4587 36.1307ZM31.76 29.08C31.3938 28.2418 30.8454 27.4957 30.1547 26.896C29.4449 26.2899 28.6232 25.8288 27.736 25.5387C26.7637 25.2198 25.7458 25.0621 24.7227 25.072C24.328 25.072 23.888 25.0933 23.3973 25.136C22.9698 25.167 22.5464 25.2402 22.1333 25.3547L22.352 20.5813H31.3707V17.208H18.8L18.4267 29.28C18.7946 29.0996 19.1741 28.9437 19.5627 28.8133C19.9938 28.6657 20.4306 28.5349 20.872 28.4213C21.3242 28.3066 21.7828 28.2185 22.2453 28.1573C22.6846 28.0971 23.1273 28.0659 23.5707 28.064C24.176 28.064 24.7707 28.1307 25.352 28.2667C25.9333 28.4 26.4587 28.64 26.928 28.984C27.392 29.328 27.7733 29.7787 28.064 30.3413C28.3573 30.9013 28.5013 31.6107 28.5013 32.4613C28.5013 33.128 28.3947 33.7253 28.1733 34.256C27.9753 34.7561 27.6725 35.208 27.2853 35.5813C26.9088 35.9367 26.4643 36.2124 25.9787 36.392C25.472 36.5787 24.944 36.6747 24.384 36.6747C23.384 36.6747 22.5227 36.408 21.792 35.8773C21.0687 35.3519 20.5249 34.6163 20.2347 33.7707L20.1947 33.7867L17.4853 36.3253C18.032 37.2187 18.7387 37.968 19.6107 38.56C20.8773 39.424 22.4373 39.856 24.288 39.856C25.3512 39.8616 26.4071 39.6811 27.408 39.3227C28.3612 38.9963 29.2355 38.4739 29.9745 37.7891C30.7135 37.1043 31.3008 36.2723 31.6987 35.3467C32.1253 34.3813 32.3387 33.2853 32.3387 32.0587C32.3387 30.9333 32.1467 29.9413 31.7627 29.0773L31.76 29.08Z" fill="white"/>
</svg>
