<svg width="64" height="64" viewBox="0 0 64 64" fill="none" xmlns="http://www.w3.org/2000/svg">
<path d="M31.7851 2C16.55 2 17.5 8.64002 17.5 8.64002L17.5175 15.52H32.0526V17.585H11.75C11.75 17.585 2 16.4725 2 31.9226C2 47.3726 10.5075 46.8226 10.5075 46.8226H15.5825V39.6551C15.5825 39.6551 15.31 31.1051 23.9576 31.1051H38.3726C38.3726 31.1051 46.4726 31.2351 46.4726 23.2351V10.005C46.4726 10.005 47.7001 2 31.7826 2H31.7851ZM23.7701 6.62501C25.2151 6.62501 26.3851 7.80002 26.3851 9.25502C26.3851 10.7075 25.2151 11.8825 23.7701 11.8825C22.3226 11.8825 21.1551 10.7075 21.1551 9.25502C21.1551 7.80002 22.3226 6.62501 23.7701 6.62501Z" fill="white"/>
<path d="M32.2174 62.0002C47.4474 62.0002 46.4974 55.3601 46.4974 55.3601L46.4799 48.4801H31.9449V46.4151H52.2524C52.2524 46.4151 62.0025 47.5276 62.0025 32.0776C62.0025 16.6275 53.4925 17.1775 53.4925 17.1775H48.4174V24.3451C48.4174 24.3451 48.6899 32.8951 40.0424 32.8951H25.6299C25.6299 32.8951 17.5299 32.7651 17.5299 40.7651V53.9951C17.5299 53.9951 16.2998 62.0002 32.2174 62.0002ZM40.2324 57.3752C38.7849 57.3752 37.6174 56.2001 37.6174 54.7451C37.6174 53.2926 38.7849 52.1176 40.2324 52.1176C41.6774 52.1176 42.8474 53.2926 42.8474 54.7451C42.8474 56.2001 41.6774 57.3752 40.2324 57.3752Z" fill="white"/>
</svg>
