<svg width="64" height="64" viewBox="0 0 64 64" fill="none" xmlns="http://www.w3.org/2000/svg">
<path d="M2 32V62H62V2H2V32ZM50.3487 29.6075C51.7871 29.9462 53.0944 30.6999 54.1081 31.775C54.6556 32.36 55.475 33.4344 55.5444 33.6987C55.5631 33.7775 52.9569 35.525 51.3744 36.5019C51.3162 36.5412 51.0819 36.2975 50.8269 35.915C50.0563 34.7919 49.2444 34.3044 48.005 34.2162C46.1881 34.0981 45.0163 35.0469 45.0256 36.6388C45.0161 37.0283 45.1031 37.4141 45.2788 37.7619C45.68 38.5925 46.4319 39.0894 48.755 40.0963C53.0525 41.9412 54.8881 43.1619 56.03 44.8906C57.3088 46.8237 57.5919 49.91 56.7331 52.2144C55.7769 54.7044 53.4125 56.4031 50.0919 56.96C49.0662 57.1456 46.625 57.1156 45.5206 56.9112C43.1094 56.4819 40.8237 55.2894 39.4175 53.7275C38.8606 53.1219 37.7862 51.53 37.8556 51.4231C37.8856 51.3837 38.1294 51.2281 38.4031 51.0706L40.6306 49.7806L42.3594 48.7756L42.7213 49.3119C43.2294 50.0825 44.3319 51.1381 44.9975 51.4887C46.9119 52.505 49.5388 52.3588 50.8381 51.1963C51.365 50.7575 51.6594 50.0825 51.62 49.4C51.62 48.7063 51.5319 48.395 51.17 47.8756C50.7013 47.2119 49.7544 46.6456 47.0487 45.4738C43.9531 44.135 42.6144 43.3156 41.405 41.9975C40.6437 41.1299 40.0806 40.1068 39.755 38.9994C39.53 38.15 39.4719 36.02 39.6481 35.1706C40.2838 32.1725 42.5488 30.0931 45.8 29.4781C46.8556 29.2738 49.3156 29.3506 50.3506 29.6056L50.3487 29.6075ZM36.2675 32.1181L36.2862 34.5688H28.4731V56.7669H22.9456V34.5688H15.1438V32.1669C15.1438 30.8281 15.1737 29.7162 15.2113 29.6862C15.2413 29.6469 19.9869 29.6281 25.7488 29.6375L36.2375 29.6675L36.2675 32.1181Z" fill="white"/>
</svg>
