<svg width="64" height="64" viewBox="0 0 64 64" fill="none" xmlns="http://www.w3.org/2000/svg">
<path d="M59.7925 19.0705C59.4641 17.899 58.8244 16.8384 57.9414 16.0014C57.0334 15.1386 55.9206 14.5215 54.7079 14.2082C50.1695 13.012 31.9867 13.012 31.9867 13.012C24.4065 12.9257 16.8281 13.3051 9.29442 14.1478C8.08173 14.4842 6.97097 15.1152 6.06096 15.9844C5.1668 16.8448 4.51914 17.9057 4.18081 19.0681C3.36808 23.4464 2.9732 27.8921 3.00149 32.3451C2.97249 36.7941 3.3664 41.2383 4.18081 45.6221C4.51189 46.7797 5.15713 47.8358 6.05371 48.6888C6.95028 49.5419 8.06677 50.1581 9.29442 50.4844C13.8933 51.6782 31.9867 51.6782 31.9867 51.6782C39.5765 51.7646 47.1645 51.3853 54.7079 50.5424C55.9206 50.2291 57.0334 49.612 57.9414 48.7492C58.8355 47.8962 59.4711 46.8353 59.7901 45.6801C60.6241 41.3035 61.0295 36.856 61.0008 32.4007C61.0636 27.9265 60.6586 23.4581 59.7925 19.0681V19.0705ZM26.2061 40.6197V24.0729L41.3342 32.3475L26.2061 40.6197Z" fill="white"/>
</svg>
