<svg width="64" height="64" viewBox="0 0 64 64" fill="none" xmlns="http://www.w3.org/2000/svg">
<path d="M54.6199 14.24L35.6719 3C34.57 2.34702 33.3128 2.00248 32.0319 2.00248C30.7511 2.00248 29.4938 2.34702 28.3919 3L9.45192 14.24C8.32539 14.9122 7.39329 15.8662 6.74734 17.008C6.10139 18.1498 5.76385 19.4401 5.76792 20.752V43.248C5.76123 44.5561 6.09426 45.8435 6.73442 46.9843C7.37457 48.1251 8.29992 49.0801 9.41992 49.756L28.3639 61.004C29.4658 61.657 30.7231 62.0015 32.0039 62.0015C33.2848 62.0015 34.542 61.657 35.6439 61.004L54.5879 49.756C55.7082 49.0804 56.6338 48.1255 57.2739 46.9846C57.9141 45.8438 58.247 44.5562 58.2399 43.248V20.752C58.2504 19.4473 57.9228 18.1622 57.2891 17.0217C56.6554 15.8812 55.7372 14.9243 54.6239 14.244L54.6199 14.24ZM39.9439 49.364V50.98C39.9424 51.0795 39.9159 51.177 39.867 51.2636C39.8181 51.3502 39.7483 51.4233 39.6639 51.476L38.7079 52.024C38.5559 52.104 38.4279 52.024 38.4279 51.812V50.228C37.7508 50.5598 36.9763 50.6351 36.2479 50.44C36.1904 50.4023 36.1481 50.3455 36.1283 50.2797C36.1085 50.2138 36.1127 50.1431 36.1399 50.08L36.4839 48.62C36.5031 48.5402 36.5381 48.4651 36.5869 48.3992C36.6357 48.3332 36.6973 48.2777 36.7679 48.236C36.7919 48.2257 36.8178 48.2203 36.8439 48.2203C36.8701 48.2203 36.8959 48.2257 36.9199 48.236C37.59 48.4157 38.3039 48.3252 38.9079 47.984C39.3359 47.7742 39.6993 47.4527 39.9598 47.0535C40.2203 46.6543 40.3682 46.1922 40.3879 45.716C40.3879 44.892 39.9399 44.548 38.8519 44.544C37.4759 44.544 36.2079 44.28 36.1719 42.248C36.188 41.38 36.3962 40.5263 36.7814 39.7482C37.1666 38.9702 37.7194 38.2871 38.3999 37.748V36.12C38.3994 36.019 38.4249 35.9196 38.4739 35.8313C38.5229 35.743 38.5939 35.6689 38.6799 35.616L39.6039 35.028C39.7559 34.948 39.8839 35.028 39.8839 35.244V36.88C40.4507 36.6213 41.0837 36.5444 41.6959 36.66C41.7603 36.6964 41.8085 36.7558 41.8308 36.8263C41.8531 36.8969 41.8478 36.9732 41.8159 37.04L41.4919 38.488C41.4523 38.6358 41.3598 38.7639 41.2319 38.848C41.1865 38.8632 41.1373 38.8632 41.0919 38.848C40.4951 38.7186 39.8714 38.8216 39.3479 39.136C38.9656 39.3011 38.6381 39.5716 38.4037 39.9158C38.1693 40.26 38.0376 40.6638 38.0239 41.08C38.0239 41.82 38.4159 42.048 39.7239 42.072C41.4759 42.072 42.2319 42.868 42.2519 44.628C42.2348 45.5379 42.0198 46.4332 41.6219 47.2517C41.2241 48.0703 40.6529 48.7924 39.9479 49.368L39.9439 49.364ZM49.8679 46.644C49.8804 46.7127 49.8736 46.7834 49.8482 46.8484C49.8227 46.9134 49.7797 46.9701 49.7239 47.012L44.9319 49.92C44.91 49.9387 44.8826 49.95 44.8539 49.9521C44.8251 49.9543 44.7964 49.9472 44.7719 49.932C44.7473 49.9169 44.7279 49.8946 44.7165 49.8681C44.705 49.8416 44.702 49.8123 44.7079 49.784V48.544C44.7112 48.4775 44.7338 48.4133 44.7728 48.3594C44.8119 48.3054 44.8658 48.2639 44.9279 48.24L49.6439 45.416C49.6666 45.3979 49.6943 45.3873 49.7232 45.3856C49.7522 45.3839 49.7809 45.3913 49.8055 45.4067C49.8301 45.422 49.8493 45.4446 49.8605 45.4714C49.8717 45.4981 49.8743 45.5277 49.8679 45.556V46.648V46.644ZM53.1759 18.988L35.2479 30.06C33.0119 31.384 31.3679 32.832 31.3679 35.528V57.608C31.3679 59.224 32.0279 60.256 33.0199 60.572C32.6927 60.6335 32.3608 60.6669 32.0279 60.672C30.9719 60.672 29.9399 60.384 29.0359 59.844L10.0879 48.6C9.1687 48.0424 8.40935 47.2566 7.88367 46.3188C7.35799 45.3809 7.08386 44.3231 7.08792 43.248V20.752C7.08247 19.6756 7.35594 18.6161 7.88169 17.6767C8.40744 16.7374 9.16753 15.9503 10.0879 15.392L29.0399 4.152C29.9414 3.61763 30.97 3.33566 32.0179 3.33566C33.0659 3.33566 34.0945 3.61763 34.9959 4.152L53.9399 15.4C54.7114 15.8665 55.3717 16.4959 55.8747 17.2442C56.3777 17.9924 56.7112 18.8415 56.8519 19.732C56.2359 18.396 54.8199 18.024 53.1719 18.992H53.1799L53.1759 18.988Z" fill="white"/>
</svg>
