<svg width="64" height="64" viewBox="0 0 64 64" fill="none" xmlns="http://www.w3.org/2000/svg">
<path fill-rule="evenodd" clip-rule="evenodd" d="M32.4115 4C16.7141 4 4 16.7141 4 32.4115C4 44.9835 12.1328 55.6023 23.4263 59.3669C24.8469 59.6155 25.3796 58.7631 25.3796 58.0173C25.3796 57.3425 25.3441 55.1051 25.3441 52.7257C18.2057 54.0397 16.359 50.9855 15.7908 49.3873C15.4711 48.5705 14.0861 46.049 12.8786 45.3742C11.8842 44.8415 10.4636 43.5275 12.8431 43.4919C15.0805 43.4564 16.6786 45.5518 17.2113 46.4041C19.7684 50.7014 23.8525 49.4939 25.4862 48.7481C25.7348 46.9013 26.4806 45.6583 27.2974 44.948C20.9759 44.2377 14.3702 41.7873 14.3702 30.9199C14.3702 27.8301 15.4711 25.2731 17.2824 23.2843C16.9982 22.574 16.0038 19.6618 17.5665 15.7552C17.5665 15.7552 19.9459 15.0094 25.3796 18.6674C27.6525 18.0282 30.0675 17.7085 32.4825 17.7085C34.8975 17.7085 37.3125 18.0282 39.5854 18.6674C45.0191 14.9739 47.3985 15.7552 47.3985 15.7552C48.9612 19.6618 47.9668 22.574 47.6826 23.2843C49.4939 25.2731 50.5948 27.7946 50.5948 30.9199C50.5948 41.8228 43.9536 44.2377 37.6321 44.948C38.662 45.8359 39.5499 47.5406 39.5499 50.2042C39.5499 54.0042 39.5143 57.0584 39.5143 58.0173C39.5143 58.7631 40.0471 59.651 41.4676 59.3669C47.1077 57.4626 52.0087 53.8377 55.4808 49.0023C58.9529 44.1668 60.8212 38.3644 60.8229 32.4115C60.8229 16.7141 48.1088 4 32.4115 4Z" fill="white"/>
</svg>
