<svg width="64" height="64" viewBox="0 0 64 64" fill="none" xmlns="http://www.w3.org/2000/svg">
<path d="M36.1424 5L27.3532 5.8595V42.8382L36.0499 41.5017V25.736L47.7395 43.223L56.9053 40.2597L44.9338 23.441L57 7.5785L47.647 5.3825L36.0522 21.245L36.1424 5ZM16.2186 14.0113C16.1161 14.0223 16.0204 14.0692 15.9478 14.144L12.499 17.6675C12.4287 17.7397 12.384 17.8338 12.372 17.9349C12.3601 18.036 12.3815 18.1383 12.433 18.2255L16.4719 25.025C15.7485 26.2681 15.1775 27.5973 14.7718 28.9828L7.35677 30.5578C7.25593 30.579 7.16536 30.6351 7.10036 30.7167C7.03536 30.7983 6.99991 30.9003 7 31.0055V35.9892C7 36.1985 7.14094 36.3807 7.34135 36.4302L14.5383 38.2303C14.9148 39.8294 15.5085 41.3668 16.3023 42.7977L12.1357 49.2868C12.08 49.3746 12.0556 49.4792 12.0664 49.5833C12.0772 49.6873 12.1227 49.7844 12.1951 49.8583L15.6439 53.384C15.7148 53.456 15.8073 53.5018 15.9067 53.514C16.006 53.5262 16.1065 53.5042 16.1922 53.4515L22.7197 49.4015C24.0014 50.1575 25.3844 50.7515 26.8467 51.1565L28.3707 58.6378C28.4147 58.8493 28.5953 59 28.8067 59H33.6847C33.7849 59.0003 33.8823 58.966 33.961 58.9027C34.0397 58.8394 34.0953 58.7508 34.1186 58.6512L35.9134 51.1543C37.4017 50.7431 38.829 50.1294 40.1572 49.3295L46.5921 53.6383C46.7683 53.7575 47.0018 53.7327 47.1515 53.5797L50.6025 50.0562C50.6731 49.9843 50.718 49.8901 50.73 49.7889C50.742 49.6877 50.7203 49.5854 50.6685 49.4983L48.3187 45.5427L47.5589 45.7902C47.5048 45.8075 47.4467 45.8066 47.3932 45.7875C47.3397 45.7685 47.2935 45.7324 47.2616 45.6845L43.8283 40.55C42.8128 42.5835 41.335 44.3386 39.5187 45.6682C37.7024 46.9978 35.6005 47.8632 33.3894 48.1917C31.1782 48.5203 28.9222 48.3025 26.8104 47.5566C24.6987 46.8107 22.7927 45.5584 21.2523 43.9047C19.7119 42.2511 18.582 40.2442 17.9573 38.0524C17.3326 35.8606 17.2313 33.5477 17.6619 31.3076C18.0925 29.0676 19.0424 26.9656 20.4321 25.178C21.8217 23.3904 23.6106 21.9691 25.6487 21.0335V17.348C24.7656 17.663 23.9089 18.0455 23.0963 18.4978L23.0941 18.4933L16.5093 14.0833C16.4237 14.0251 16.321 13.9988 16.2186 14.009V14.0113Z" fill="white"/>
</svg>
