<svg width="64" height="64" viewBox="0 0 64 64" fill="none" xmlns="http://www.w3.org/2000/svg">
<path fill-rule="evenodd" clip-rule="evenodd" d="M61 32C61 48.0153 48.0153 61 32 61C15.9848 61 3 48.0153 3 32C3 15.9848 15.9848 3 32 3C48.0153 3 61 15.9848 61 32ZM50.5793 29.7235C51.0482 30.3929 51.314 31.1832 51.343 32C51.3557 32.7991 51.1417 33.5855 50.726 34.2681C50.3103 34.9506 49.7098 35.5015 48.994 35.857C49.0278 36.2823 49.0278 36.7077 48.994 37.133C48.994 43.629 41.425 48.907 32.087 48.907C22.749 48.907 15.18 43.629 15.18 37.133C15.1473 36.7083 15.1473 36.2817 15.18 35.857C14.627 35.5981 14.1366 35.2226 13.7425 34.7562C13.3485 34.2898 13.0601 33.7436 12.8972 33.1551C12.7342 32.5667 12.7007 31.9499 12.7988 31.3472C12.8969 30.7446 13.1243 30.1703 13.4655 29.6639C13.8066 29.1575 14.2533 28.731 14.775 28.4136C15.2966 28.0963 15.8808 27.8957 16.4874 27.8255C17.0939 27.7554 17.7085 27.8175 18.2888 28.0074C18.8691 28.1974 19.4013 28.5108 19.849 28.926C23.1906 26.6597 27.1219 25.4199 31.159 25.359L33.305 15.296C33.3291 15.1795 33.3761 15.0689 33.4432 14.9707C33.5104 14.8725 33.5963 14.7886 33.6961 14.7239C33.7959 14.6592 33.9076 14.6149 34.0247 14.5936C34.1417 14.5723 34.2618 14.5745 34.378 14.6L41.483 16.021C41.83 15.4249 42.3781 14.9719 43.0289 14.7435C43.6797 14.515 44.3907 14.5261 45.0341 14.7745C45.6775 15.023 46.2114 15.4927 46.5397 16.0993C46.868 16.7059 46.9694 17.4097 46.8257 18.0843C46.6819 18.7589 46.3024 19.3602 45.7553 19.7802C45.2081 20.2002 44.5292 20.4114 43.8404 20.376C43.1515 20.3405 42.4979 20.0607 41.9967 19.5868C41.4956 19.1128 41.1798 18.4758 41.106 17.79L34.9 16.485L33.015 25.533C37.0031 25.6186 40.881 26.8575 44.18 29.1C44.6204 28.6766 45.1473 28.3535 45.7244 28.1531C46.3015 27.9526 46.9151 27.8795 47.5232 27.9387C48.1312 27.998 48.7192 28.1882 49.2468 28.4963C49.7744 28.8044 50.229 29.223 50.5793 29.7235ZM22.8312 33.2881C22.6195 33.6048 22.4723 33.9601 22.3979 34.3338C22.3235 34.7074 22.3235 35.092 22.3978 35.4656C22.5478 36.2202 22.9914 36.8843 23.6311 37.3118C24.2707 37.7393 25.054 37.8952 25.8086 37.7452C26.1823 37.6709 26.5376 37.5238 26.8544 37.3122C27.1712 37.1006 27.4432 36.8286 27.6548 36.5119C28.0823 35.8723 28.2382 35.089 28.0882 34.3344C27.9382 33.5798 27.4946 32.9157 26.8549 32.4882C26.2153 32.0607 25.432 31.9048 24.6774 32.0548C23.9228 32.2048 23.2587 32.6484 22.8312 33.2881ZM32.029 45.108C34.6028 45.2143 37.1354 44.5425 39.192 42.991C39.3458 42.841 39.4338 42.6361 39.4365 42.4213C39.4392 42.2064 39.3565 41.9993 39.2065 41.8455C39.1322 41.7693 39.0437 41.7085 38.9459 41.6666C38.8482 41.6246 38.7431 41.6024 38.6368 41.601C38.4219 41.5983 38.2148 41.681 38.061 41.831C36.301 43.0936 34.1628 43.7176 32 43.6C29.8398 43.6965 27.7116 43.0519 25.968 41.773C25.8177 41.6497 25.627 41.5867 25.4328 41.5962C25.2387 41.6057 25.055 41.6871 24.9176 41.8246C24.7801 41.962 24.6987 42.1457 24.6892 42.3398C24.6797 42.534 24.7427 42.7247 24.866 42.875C26.9235 44.4255 29.4549 45.2146 32.029 45.108ZM37.0581 37.4278C37.5366 37.7468 38.0683 38.032 38.641 38.032C39.0343 38.0366 39.4245 37.9611 39.7877 37.81C40.1508 37.6589 40.4795 37.4355 40.7535 37.1533C41.0275 36.8711 41.2413 36.5361 41.3816 36.1687C41.522 35.8012 41.5861 35.409 41.57 35.016C41.5698 34.5151 41.4399 34.0227 41.1928 33.587C40.9458 33.1512 40.5901 32.7868 40.1604 32.5294C39.7307 32.2719 39.2416 32.1302 38.7408 32.1179C38.2401 32.1057 37.7447 32.2234 37.3029 32.4595C36.8611 32.6957 36.488 33.0423 36.22 33.4654C35.952 33.8886 35.7982 34.374 35.7735 34.8744C35.7489 35.3747 35.8542 35.8729 36.0793 36.3204C36.3045 36.7679 36.6417 37.1494 37.0581 37.4278Z" fill="white"/>
</svg>
