<svg width="64" height="64" viewBox="0 0 64 64" fill="none" xmlns="http://www.w3.org/2000/svg">
<path d="M53.0213 10.5165C50.5306 6.86604 46.7502 4.31485 42.4548 3.38579C38.1594 2.45673 33.6744 3.22017 29.919 5.51964L16.7238 13.9814C14.9406 15.1083 13.4123 16.6011 12.2385 18.3628C11.0646 20.1245 10.2715 22.1157 9.91056 24.2069C9.26927 27.7213 9.82436 31.3512 11.4857 34.5073C10.3506 36.2285 9.58796 38.1717 9.24762 40.2103C8.87412 42.3361 8.92357 44.5157 9.39309 46.622C9.86261 48.7284 10.7428 50.7195 11.9825 52.4795C14.4792 56.1213 18.2556 58.6688 22.5458 59.6054C26.836 60.5419 31.3187 59.7973 35.0847 57.5226L48.2887 49.0519C50.0656 47.9207 51.5877 46.4262 52.7566 44.6649C53.9256 42.9036 54.7156 40.9147 55.0755 38.8265C55.7093 35.3232 55.1511 31.7066 53.4915 28.5635C55.2066 25.8512 56.0783 22.6834 55.9945 19.4674C55.9107 16.2514 54.8752 13.1341 53.0213 10.5165V10.5165ZM28.602 53.2142C26.5292 53.758 24.3409 53.646 22.3333 52.8936C20.3257 52.1411 18.5958 50.7845 17.3779 49.0074C15.8488 46.871 15.2884 44.2334 15.7303 41.6138L15.9884 40.3512L16.2271 39.5701L16.936 40.0445C18.4886 41.2172 20.2344 42.104 22.0928 42.6641L22.5719 42.8318L22.5171 43.3061C22.4711 43.9659 22.6638 44.7078 23.0421 45.2749C23.8164 46.3984 25.16 46.9369 26.4576 46.5838C26.7422 46.4911 27.0198 46.3984 27.2584 46.2486L40.4077 37.7868C41.0706 37.3588 41.4949 36.7186 41.6593 35.9571C41.7968 35.1778 41.6281 34.3751 41.1891 33.7191C40.8125 33.1856 40.2848 32.7795 39.6752 32.5542C39.0656 32.3288 38.4027 32.2948 37.7736 32.4565C37.489 32.5581 37.1849 32.6705 36.9445 32.8185L31.9715 36.0035C29.702 37.3647 27.0052 37.8073 24.425 37.242C21.8447 36.6768 19.5728 35.1458 18.0674 32.9576C17.3153 31.8995 16.781 30.7001 16.4962 29.4302C16.2113 28.1603 16.1818 26.8456 16.4092 25.564C16.6375 24.2949 17.1277 23.0884 17.848 22.0227C18.5682 20.957 19.5025 20.0559 20.5901 19.3777L33.7111 10.9159C34.5499 10.3985 35.4544 9.99831 36.4 9.72646C38.471 9.18451 40.6569 9.29546 42.6636 10.0444C44.6703 10.7933 46.4014 12.1442 47.624 13.9154C48.4959 15.1537 49.0711 16.5791 49.3042 18.0796C49.5374 19.5801 49.4221 21.1147 48.9676 22.5627L48.7289 23.3527L48.0483 22.8783C46.4773 21.7199 44.7254 20.8345 42.865 20.2587L42.3947 20.1196L42.4407 19.6452C42.4845 18.9397 42.3003 18.2388 41.9157 17.6479C41.5451 17.1076 41.0179 16.6963 40.4064 16.4702C39.7949 16.2442 39.129 16.2145 38.5002 16.3853C38.2208 16.4641 37.9519 16.5767 37.6993 16.7206L24.5236 25.2555C23.8606 25.7013 23.4364 26.3237 23.2985 27.103C23.1606 27.8645 23.3444 28.7008 23.7687 29.3143C24.5236 30.4378 25.8954 30.9121 27.1665 30.5769C27.4537 30.5029 27.7296 30.3902 27.9868 30.2416L33.0145 27.0085C33.8393 26.4663 34.7438 26.0588 35.6946 25.8012C37.7672 25.2529 39.9571 25.3627 41.9656 26.1155C43.9742 26.8683 45.7038 28.2276 46.9187 30.008C47.6703 31.0614 48.2071 32.2549 48.4978 33.5192C48.7885 34.7835 48.8274 36.0935 48.6123 37.3731C48.3945 38.6387 47.9146 39.8439 47.2039 40.9098C46.4933 41.9758 45.5678 42.8786 44.4879 43.5594L31.3386 52.0015C30.4833 52.523 29.5638 52.9289 28.6038 53.2088L28.602 53.2142Z" fill="white"/>
</svg>
