<svg width="64" height="64" viewBox="0 0 64 64" fill="none" xmlns="http://www.w3.org/2000/svg">
<path d="M25.3009 3C22.5211 3.61957 19.7604 4.47525 17.1675 5.76538C17.2144 7.97978 17.3837 10.19 17.6747 12.386C16.6718 13.0264 15.6194 13.5761 14.6852 14.3241C13.7319 15.0419 12.7596 15.7408 11.894 16.587C10.146 15.4439 8.33238 14.4026 6.46226 13.4684C4.4356 15.6236 2.55002 17.9546 1 20.5613C2.16109 22.4313 3.38318 24.171 4.69489 25.8351H4.72539V41.8418C4.75558 41.8403 4.78582 41.8435 4.815 41.8513L14.7252 42.7957C14.9767 42.8197 15.2111 42.9322 15.3859 43.1128C15.5608 43.2933 15.6646 43.53 15.6785 43.7799L15.9855 48.1093L24.624 48.7194L25.2208 44.7243C25.2578 44.4736 25.3843 44.2444 25.5775 44.0784C25.7706 43.9123 26.0175 43.8205 26.2732 43.8195H36.7287C36.9844 43.8205 37.2313 43.9123 37.4244 44.0784C37.6176 44.2444 37.7441 44.4736 37.7811 44.7243L38.3779 48.7194L47.0164 48.1093L47.3234 43.7799C47.3376 43.5285 47.4427 43.2907 47.6196 43.1099C47.7964 42.9291 48.0331 42.8176 48.2862 42.7957L58.1869 41.8513C58.2174 41.8513 58.246 41.8418 58.2765 41.8418V25.8351H58.3165C59.6456 24.1487 60.8754 22.3879 62 20.5613C60.4614 17.9546 58.5644 15.6218 56.5377 13.4684C54.669 14.4051 52.8555 15.4463 51.106 16.587C50.2423 15.7408 49.2795 15.0419 48.3262 14.3241C47.3825 13.5761 46.3301 13.0245 45.3272 12.386C45.6247 10.193 45.7734 8.0283 45.8344 5.76538C43.2529 4.47713 40.4922 3.62145 37.701 3C36.5883 4.88347 35.5838 6.82775 34.6925 8.82353C33.6446 8.66294 32.5861 8.58086 31.5257 8.57798H31.4762C30.4238 8.58742 29.3618 8.65731 28.3094 8.82353C27.4179 6.82616 26.4102 4.88171 25.2913 3H25.3009ZM17.4649 26.4339C20.7614 26.4339 23.4324 29.0897 23.4324 32.3557C23.4324 33.1321 23.2781 33.9009 22.9782 34.6182C22.6783 35.3355 22.2387 35.9873 21.6846 36.5363C21.1305 37.0853 20.4726 37.5208 19.7486 37.8179C19.0246 38.1151 18.2486 38.268 17.4649 38.268C16.6813 38.268 15.9053 38.1151 15.1813 37.8179C14.4573 37.5208 13.7994 37.0853 13.2453 36.5363C12.6912 35.9873 12.2516 35.3355 11.9517 34.6182C11.6518 33.9009 11.4975 33.1321 11.4975 32.3557C11.4969 30.7866 12.1252 29.2815 13.2442 28.1711C14.3631 27.0608 15.8812 26.4359 17.4649 26.4339ZM45.5484 26.4339C48.8448 26.4339 51.5159 29.0897 51.5159 32.3557C51.5159 33.9237 50.8872 35.4275 49.7681 36.5363C48.6489 37.6451 47.1311 38.268 45.5484 38.268C43.9657 38.268 42.4479 37.6451 41.3287 36.5363C40.2096 35.4275 39.5809 33.9237 39.5809 32.3557C39.5804 30.7866 40.2086 29.2815 41.3276 28.1711C42.4466 27.0608 43.9647 26.4359 45.5484 26.4339ZM18.0312 28.7856C17.5042 28.7742 16.9803 28.8671 16.4901 29.059C15.9999 29.2508 15.5533 29.5378 15.1765 29.903C14.7997 30.2682 14.5004 30.7042 14.296 31.1856C14.0916 31.6669 13.9863 32.1839 13.9863 32.7061C13.9863 33.2283 14.0916 33.7452 14.296 34.2266C14.5004 34.7079 14.7997 35.144 15.1765 35.5092C15.5533 35.8744 15.9999 36.1613 16.4901 36.3532C16.9803 36.5451 17.5042 36.638 18.0312 36.6265C18.5515 36.628 19.0671 36.5279 19.5483 36.3319C20.0296 36.1358 20.4671 35.8478 20.836 35.4841C21.2048 35.1204 21.4977 34.6883 21.6978 34.2125C21.898 33.7366 22.0015 33.2263 22.0025 32.7108C22.0025 32.1945 21.8997 31.6834 21.7 31.2065C21.5004 30.7297 21.2077 30.2965 20.8388 29.9319C20.4699 29.5673 20.032 29.2784 19.5502 29.0817C19.0685 28.885 18.5523 28.7844 18.0312 28.7856ZM44.9726 28.7856C44.4457 28.7742 43.9217 28.8671 43.4315 29.059C42.9413 29.2508 42.4947 29.5378 42.1179 29.903C41.7411 30.2682 41.4418 30.7042 41.2374 31.1856C41.033 31.6669 40.9278 32.1839 40.9278 32.7061C40.9278 33.2283 41.033 33.7452 41.2374 34.2266C41.4418 34.7079 41.7411 35.144 42.1179 35.5092C42.4947 35.8744 42.9413 36.1613 43.4315 36.3532C43.9217 36.5451 44.4457 36.638 44.9726 36.6265C45.4924 36.6278 46.0074 36.5274 46.488 36.3312C46.9686 36.1349 47.4055 35.8467 47.7735 35.483C48.1415 35.1192 48.4335 34.6872 48.6327 34.2115C48.8319 33.7358 48.9344 33.2258 48.9344 32.7108C48.9354 32.1951 48.8336 31.6842 48.6349 31.2075C48.4362 30.7308 48.1444 30.2977 47.7763 29.9331C47.4082 29.5684 46.971 29.2793 46.4899 29.0824C46.0088 28.8855 45.4932 28.7846 44.9726 28.7856ZM31.5067 29.9265C32.5686 29.9265 33.4323 30.6934 33.4323 31.6473V37.0969C33.4323 38.0508 32.5686 38.829 31.5067 38.829C30.4447 38.829 29.5811 38.0527 29.5811 37.0969V31.6473C29.5811 30.6934 30.4447 29.9265 31.5067 29.9265ZM4.71586 43.9555C4.71586 44.9094 4.72539 45.9427 4.72539 46.1486C4.72539 55.476 16.6604 59.9509 31.4857 60H31.5257C46.3511 59.9509 58.2765 55.4742 58.2765 46.1486L58.2956 43.9555L49.3882 44.8112L49.0812 49.1689C49.0635 49.4216 48.9541 49.6594 48.7733 49.8386C48.5925 50.0177 48.3525 50.126 48.0975 50.1436L37.4627 50.8916C37.2084 50.891 36.9627 50.8005 36.7698 50.6364C36.5768 50.4722 36.4494 50.2453 36.4103 49.9963L35.804 45.9238H27.1941L26.5878 49.9963C26.5485 50.2599 26.4098 50.4989 26.1996 50.665C25.9894 50.8312 25.7234 50.9122 25.4553 50.8916L14.9102 50.1436C14.6547 50.1247 14.4143 50.0163 14.2322 49.8376C14.0502 49.659 13.9384 49.4219 13.9169 49.1689L13.6194 44.8112L4.71205 43.965L4.71586 43.9555Z" fill="white"/>
</svg>
