<svg width="26" height="26" viewBox="0 0 26 26" fill="none" xmlns="http://www.w3.org/2000/svg">
<g clip-path="url(#clip0_28_80)">
<path d="M13 4.875C13.2155 4.875 13.4222 4.9606 13.5745 5.11298C13.7269 5.26535 13.8125 5.47201 13.8125 5.6875V8.9375C13.8125 9.15299 13.7269 9.35965 13.5745 9.51202C13.4222 9.6644 13.2155 9.75 13 9.75C12.7845 9.75 12.5778 9.6644 12.4255 9.51202C12.2731 9.35965 12.1875 9.15299 12.1875 8.9375V5.6875C12.1875 5.47201 12.2731 5.26535 12.4255 5.11298C12.5778 4.9606 12.7845 4.875 13 4.875ZM19.5 17.875C19.5 19.5989 18.8152 21.2522 17.5962 22.4712C16.3772 23.6902 14.7239 24.375 13 24.375C11.2761 24.375 9.62279 23.6902 8.40381 22.4712C7.18482 21.2522 6.5 19.5989 6.5 17.875V8.125C6.5 6.40109 7.18482 4.74779 8.40381 3.52881C9.62279 2.30982 11.2761 1.625 13 1.625C14.7239 1.625 16.3772 2.30982 17.5962 3.52881C18.8152 4.74779 19.5 6.40109 19.5 8.125V17.875ZM13 0C10.8451 0 8.77849 0.856024 7.25476 2.37976C5.73102 3.90349 4.875 5.97012 4.875 8.125V17.875C4.875 20.0299 5.73102 22.0965 7.25476 23.6202C8.77849 25.144 10.8451 26 13 26C15.1549 26 17.2215 25.144 18.7452 23.6202C20.269 22.0965 21.125 20.0299 21.125 17.875V8.125C21.125 5.97012 20.269 3.90349 18.7452 2.37976C17.2215 0.856024 15.1549 0 13 0V0Z" fill="#E6E6E6"/>
</g>
<defs>
<clipPath id="clip0_28_80">
<rect width="26" height="26" fill="white"/>
</clipPath>
</defs>
</svg>
