<svg width="48" height="48" viewBox="0 0 48 48" fill="none" xmlns="http://www.w3.org/2000/svg">
<path d="M45 23.9998C45 18.4799 40.3775 14 34.6395 14C34.1214 14 33.5635 14.04 33.0456 14.1201C28.6225 14.76 25.6338 17.9599 24 20.3999C22.3264 17.9599 19.3775 14.76 14.9544 14.1201C14.4365 14.04 13.8786 14 13.3605 14C7.66225 14 3 18.4799 3 23.9998C3 29.5197 7.62246 33.9997 13.3207 33.9997C13.8387 33.9997 14.3966 33.9597 14.9145 33.8797C19.3378 33.2397 22.3264 30.0397 23.9601 27.5998C25.6338 30.0397 28.5826 33.2397 33.0057 33.8797C33.5237 33.9597 34.0816 33.9997 34.5996 33.9997C40.3776 34.0397 45 29.5597 45 23.9998ZM14.4365 30.3997C14.0778 30.4397 13.7192 30.4798 13.3605 30.4798C9.61484 30.4798 6.54646 27.5598 6.54646 23.9998C6.54646 20.4398 9.61484 17.52 13.3605 17.52C13.7192 17.52 14.0778 17.56 14.4365 17.5999C18.6205 18.2 21.1707 22.3199 22.0474 23.9998C21.1707 25.6799 18.6205 29.7998 14.4365 30.3997ZM25.9526 23.9998C26.8293 22.3599 29.3795 18.2 33.5635 17.5999C33.9222 17.56 34.2808 17.52 34.6395 17.52C38.3852 17.52 41.4535 20.4399 41.4535 23.9998C41.4535 27.5597 38.3852 30.4798 34.6395 30.4798C34.2808 30.4798 33.9222 30.4397 33.5635 30.3997C29.3795 29.7998 26.8293 25.6799 25.9526 23.9998ZM10.4914 25.0398H16.7078V23.0399H10.4914V25.0398ZM35.3567 25.0398H37.4288V23.0399H35.3567V20.9199H33.3245V23.0399H31.2524V25.0398H33.3245V27.1598H35.3567V25.0398Z" fill="white"/>
</svg>
