<svg width="48" height="48" viewBox="0 0 48 48" fill="none" xmlns="http://www.w3.org/2000/svg">
<path fill-rule="evenodd" clip-rule="evenodd" d="M45.461 12.5334C45.8283 13.1572 46.0143 13.8668 45.9991 14.5859H45.9822V33.6207C45.9993 34.3237 45.8241 35.0184 45.4746 35.6335C45.0851 36.2631 44.5262 36.7766 43.8585 37.1184C37.9968 40.2664 32.1385 43.4194 26.2835 46.5772C25.5762 46.9919 24.7648 47.2074 23.9395 47.1998C23.1142 47.1922 22.3072 46.9619 21.608 46.5343C20.2 45.7583 15.3866 43.1735 11.0276 40.8328C8.16737 39.2968 5.50277 37.8659 4.12434 37.1201C3.45681 36.7787 2.89835 36.2651 2.50999 35.6352C2.16046 35.0201 1.98524 34.3253 2.00234 33.6223V14.5843C1.97661 13.8624 2.16362 13.1486 2.54121 12.5272C2.91879 11.9058 3.47113 11.403 4.1328 11.0782C5.50689 10.3347 8.15881 8.9105 11.0085 7.38006C15.3741 5.03548 20.2039 2.44162 21.6148 1.66398C22.3143 1.23692 23.1215 1.00715 23.9468 1.00016C24.7721 0.993175 25.5832 1.20924 26.2903 1.62438C32.1554 4.77567 38.0177 7.9286 43.8771 11.0832C44.528 11.4207 45.0747 11.9213 45.461 12.5334ZM26.6791 30.3558C28.0587 29.7678 29.2053 28.7403 29.9403 27.4332L35.8987 30.8653C34.6966 32.9543 32.9657 34.6899 30.88 35.8977C28.7943 37.1055 26.4274 37.7429 24.0172 37.7457C21.6071 37.7486 19.2387 37.1168 17.1502 35.9139C15.0616 34.711 13.3266 32.9795 12.1196 30.8933C10.9265 28.8284 10.3003 26.4849 10.3045 24.1C10.3202 21.0928 11.3242 18.174 13.1619 15.7935C14.9995 13.413 17.5689 11.7027 20.4742 10.9261C23.3795 10.1495 26.4596 10.3497 29.2399 11.4958C32.0203 12.6419 34.3467 14.6704 35.8607 17.2688L29.8958 20.6893C29.1435 19.392 27.9835 18.3797 26.5962 17.8101C25.209 17.2404 23.6724 17.1453 22.2255 17.5396C20.7786 17.9338 19.5026 18.7953 18.5961 19.99C17.6896 21.1847 17.2035 22.6456 17.2134 24.1452C17.2233 25.6448 17.7287 27.0991 18.6509 28.2817C19.5731 29.4643 20.8603 30.3089 22.3123 30.684C23.7643 31.0591 25.2995 30.9437 26.6791 30.3558Z" fill="white"/>
</svg>
