<svg width="48" height="48" viewBox="0 0 48 48" fill="none" xmlns="http://www.w3.org/2000/svg">
<path d="M25.5426 36.2065C25.739 34.0624 25.3855 31.9035 24.5156 29.934C23.6456 27.9644 22.2879 26.249 20.5708 24.95C18.7312 23.5017 16.5191 22.6037 14.1905 22.36C13.8993 22.3222 13.6333 22.1755 13.4459 21.9494C13.2585 21.7234 13.1637 21.4348 13.1805 21.1417C13.1923 20.9921 13.234 20.8465 13.3031 20.7133C13.3722 20.5801 13.4672 20.4621 13.5827 20.3662C13.6981 20.2704 13.8315 20.1986 13.9752 20.1552C14.1188 20.1118 14.2696 20.0976 14.4188 20.1134C18.3502 20.5216 21.96 22.4699 24.4587 25.5322C26.9574 28.5946 28.1418 32.5217 27.7527 36.4548C27.6718 37.3257 27.5055 38.1865 27.256 39.0248L30.5711 39.9581C31.5519 39.6766 32.5075 39.3137 33.4279 38.8731C33.6761 37.5865 33.7973 36.2786 33.7896 34.9682C33.7839 29.9672 31.9893 25.1332 28.7301 21.3399C25.4709 17.5466 20.9622 15.0442 16.0189 14.2851C14.9171 14.0814 13.7873 14.0814 12.6854 14.2851C11.2904 14.6532 10.0369 15.429 9.0853 16.5134C8.3182 17.4019 7.78257 18.4663 7.52605 19.6117C7.26953 20.7571 7.30007 21.9482 7.61495 23.079C7.92983 24.2098 8.51929 25.2453 9.33091 26.0933C10.1425 26.9414 11.1512 27.5757 12.2671 27.94C12.8574 28.0808 13.455 28.1893 14.0572 28.265C15.6131 28.5298 17.0252 29.3368 18.0432 30.543C19.0611 31.7491 19.6194 33.2766 19.619 34.8549C19.6186 36.1327 19.2481 37.383 18.5523 38.4548L20.8374 39.9215C21.9573 40.2304 23.1063 40.4215 24.2659 40.4915C24.9496 39.1208 25.3756 37.6362 25.5226 36.1115M25.7893 43.9948C20.0274 43.9948 14.5001 41.7128 10.4167 37.648C6.33322 33.5832 4.02611 28.0665 4.00011 22.305C3.99117 19.442 4.55067 16.6056 5.64618 13.9604C6.74169 11.3152 8.35141 8.9137 10.382 6.89522L11.6204 8.05687C9.73382 9.92666 8.23632 12.1516 7.21437 14.6033C6.19241 17.0549 5.66625 19.6847 5.66625 22.3409C5.66625 24.997 6.19241 27.6268 7.21437 30.0784C8.23632 32.5301 9.73382 34.7551 11.6204 36.6248C13.4903 38.5113 15.7154 40.0088 18.1671 41.0307C20.6189 42.0526 23.2489 42.5787 25.9051 42.5787C28.5614 42.5787 31.1913 42.0526 33.6431 41.0307C36.0949 40.0088 38.32 38.5113 40.1899 36.6248L41.3516 37.7865C39.3016 39.8049 36.8693 41.3938 34.1974 42.4601C31.5254 43.5265 28.6674 44.0488 25.791 43.9964M44 22.3217C44 19.9075 43.5229 17.5172 42.5961 15.288C41.6693 13.0588 40.311 11.0348 38.5994 9.33218C36.8877 7.62961 34.8565 6.28208 32.6223 5.36705C30.3882 4.45201 27.9952 3.98752 25.5809 4.00026C24.9326 4.00026 24.3042 4.00026 23.6759 4.09525L23.2559 5.31524C27.7157 6.87754 31.7671 9.42264 35.1103 12.7622C38.4535 16.1018 41.0029 20.1504 42.5699 24.6083L43.7883 24.17C43.7883 23.56 43.9033 22.95 43.9033 22.265M41.7882 30.8733C40.8891 24.6263 37.9911 18.8384 33.5279 14.3757C29.0647 9.91308 23.2763 7.01561 17.0289 6.1169C15.5344 6.90673 14.1563 7.89946 12.9338 9.06686V11.7918C19.0761 11.7976 24.9655 14.2386 29.3106 18.5798C33.6557 22.9209 36.102 28.8079 36.113 34.9499H38.8365C39.9924 33.7242 40.9846 32.3539 41.7882 30.8733ZM17.199 33.8065C17.199 34.364 17.0336 34.909 16.7238 35.3725C16.4141 35.836 15.9738 36.1972 15.4587 36.4105C14.9436 36.6237 14.3768 36.6795 13.83 36.5706C13.2833 36.4617 12.7811 36.1931 12.387 35.7988C11.9929 35.4045 11.7246 34.9022 11.616 34.3553C11.5075 33.8085 11.5635 33.2418 11.7771 32.7269C11.9907 32.2119 12.3522 31.7719 12.8159 31.4624C13.2796 31.1529 13.8247 30.9879 14.3822 30.9883C14.7522 30.9883 15.1186 31.0612 15.4605 31.2028C15.8024 31.3445 16.1129 31.5521 16.3745 31.8138C16.6361 32.0755 16.8436 32.3862 16.985 32.7282C17.1265 33.0701 17.1992 33.4365 17.199 33.8065Z" fill="white"/>
</svg>
