<svg width="64" height="64" viewBox="0 0 64 64" fill="none" xmlns="http://www.w3.org/2000/svg">
<path d="M32 3C16.05 3 3 15.963 3 32V54.417C3 58.1 5.9 61 9.583 61H32C48.037 61 61 47.95 61 32C61 16.05 47.95 3 32 3ZM37.887 14.948C42.759 14.948 47.341 18.66 47.341 23.822C47.341 24.286 47.341 24.75 47.283 25.301C47.138 26.664 45.891 27.65 44.528 27.476C44.2054 27.4285 43.8958 27.3163 43.6175 27.1463C43.3393 26.9764 43.0982 26.752 42.9087 26.4867C42.7192 26.2213 42.5851 25.9205 42.5145 25.6022C42.444 25.2839 42.4384 24.9546 42.498 24.634C42.498 24.46 42.527 24.228 42.527 23.822C42.527 20.893 40.149 19.762 37.887 19.762C35.625 19.762 33.595 21.676 33.595 23.822C33.624 26.287 33.595 28.752 33.595 31.246L37.8 31.188C41.048 31.13 41.077 36.06 37.8 36.031L33.595 36.06L33.566 42.991C33.044 48.443 28.433 52.764 22.865 52.764C16.978 52.764 12.106 47.95 12.106 42.034C12.167 39.1213 13.3788 36.3513 15.4765 34.3297C17.5742 32.3081 20.3871 31.1994 23.3 31.246L26.635 31.217V36.06L23.3 36.089H23.213C19.849 36.176 16.978 38.467 16.949 42.063C16.949 45.311 19.588 47.95 22.865 47.95C26.2 47.95 28.752 45.543 28.752 42.063C28.81 36.234 28.723 29.825 28.752 23.793C28.752 23.445 28.781 23.184 28.81 22.807C29.361 18.341 33.363 14.948 37.887 14.948Z" fill="white"/>
</svg>
