<svg width="64" height="64" viewBox="0 0 64 64" fill="none" xmlns="http://www.w3.org/2000/svg">
<path d="M57.1186 34.5125L50.3123 11.3375V11.3312C49.8373 9.9 48.7061 9.05 47.2936 9.05C45.8311 9.05 44.6373 9.89375 44.1873 11.25L39.7248 24.5625H24.2998L19.8373 11.25C19.3873 9.89375 18.1936 9.05 16.7311 9.05C15.2873 9.05 14.0748 9.975 13.7061 11.3375L6.90606 34.5125C6.63106 35.4313 6.98106 36.475 7.74981 37.0563L30.7811 54.3313C30.9436 54.5563 31.1686 54.725 31.4311 54.8188L31.9686 55.2188L32.4998 54.8188C32.8061 54.7125 33.0623 54.525 33.2436 54.2625L56.2686 37.05C57.0436 36.475 57.3936 35.4313 57.1186 34.5125ZM46.9811 12.0875C47.0436 11.975 47.1623 11.9688 47.1998 11.9688C47.2686 11.9688 47.3561 11.9875 47.4123 12.1563L51.1248 24.6438H42.7811L46.9811 12.0875ZM16.5186 12.15C16.5748 11.9875 16.6623 11.9688 16.7311 11.9688C16.8998 11.9688 16.9123 11.975 16.9436 12.075L21.1498 24.65H12.9061L16.5186 12.15ZM9.92481 34.9188L11.6873 28.8375L24.3373 45.725L9.92481 34.9188ZM14.5436 27.6438H22.1748L27.8498 45.4125L14.5436 27.6438ZM32.0561 48.5L25.3561 27.6438H38.7498L32.0561 48.5ZM41.9248 27.6438H49.3936L36.2498 45.1938L41.9248 27.6438ZM39.3811 46.0125L52.3373 28.7188L54.1811 34.9188L39.3811 46.0125Z" fill="white"/>
</svg>
