<svg width="64" height="64" viewBox="0 0 64 64" fill="none" xmlns="http://www.w3.org/2000/svg">
<path d="M5 5V59H59V5H5ZM34.3876 47.1142C34.3876 52.3696 31.3019 54.7687 26.8064 54.7687C22.7448 54.7687 20.3939 52.6724 19.1885 50.1286L23.3234 47.633C24.1199 49.0428 24.8431 50.2366 26.5904 50.2366C28.2528 50.2366 29.3135 49.5847 29.3135 47.0429V29.7937H34.3876V47.1142ZM46.391 54.7687C41.6776 54.7687 38.6285 52.5277 37.1454 49.5847L41.2803 47.1991C42.3661 48.9714 43.7874 50.2848 46.283 50.2848C48.3794 50.2848 49.7313 49.2356 49.7313 47.7776C49.7313 46.0419 48.3562 45.4267 46.0304 44.4026L44.7652 43.8607C41.1009 42.3063 38.6786 40.3411 38.6786 36.2062C38.6786 32.3973 41.5831 29.5044 46.1036 29.5044C49.334 29.5044 51.6483 30.6249 53.3126 33.566L49.3591 36.0982C48.4912 34.5438 47.5501 33.9286 46.0921 33.9286C44.6109 33.9286 43.6698 34.8697 43.6698 36.0982C43.6698 37.6179 44.6109 38.2312 46.7921 39.1839L48.0573 39.7259C52.3734 41.5696 54.7957 43.4634 54.7957 47.7044C54.7957 52.2616 51.2028 54.7668 46.3929 54.7668L46.391 54.7687Z" fill="white"/>
</svg>
