<svg width="64" height="64" viewBox="0 0 64 64" fill="none" xmlns="http://www.w3.org/2000/svg">
<g clip-path="url(#clip0_1_32)">
<path d="M23.272 4.144L30.544 15.7013V59.856H33.4533V15.704L40.728 4.144H23.272ZM7.27198 17.3387V26.1333H26.1813C26.1893 23.92 26.1813 21.6747 26.1653 19.472C26.1653 18.4507 25.216 17.52 24.2507 17.3387H7.27198V17.3387ZM40.08 17.3413C39.008 17.4053 37.8533 18.4347 37.856 19.5733L37.8187 53.224C37.8187 54.744 39.864 56.064 41.0373 55.1627L63.1173 38.28C64.2933 37.3867 64.2907 35.2933 63.1173 34.4L41.0773 17.6347C40.7915 17.4191 40.437 17.3148 40.08 17.3413V17.3413ZM-0.00268555 32V40.7973H26.1787V32H-0.00268555ZM11.632 46.6587V55.4587H26.1787V46.6587H11.632Z" fill="white"/>
</g>
<defs>
<clipPath id="clip0_1_32">
<rect width="64" height="64" fill="white"/>
</clipPath>
</defs>
</svg>
