<svg width="64" height="64" viewBox="0 0 64 64" fill="none" xmlns="http://www.w3.org/2000/svg">
<path fill-rule="evenodd" clip-rule="evenodd" d="M45.7331 21.376C45.6518 21.2922 45.5698 21.2088 45.4871 21.1261L29.7992 36.814L14.4138 52.1994L50.8531 29.8174C51.5962 32.0533 51.9852 34.4136 51.9852 36.814C51.9852 42.6981 49.6477 48.3412 45.487 52.5019C41.3263 56.6626 35.6832 59 29.7991 59C23.915 59 18.2719 56.6626 14.1112 52.5019L29.7991 36.814L45.487 21.126C45.5698 21.2088 45.6518 21.2921 45.7331 21.376Z" fill="white"/>
<path fill-rule="evenodd" clip-rule="evenodd" d="M22.7392 43.874C18.5785 39.7133 16.241 34.0702 16.241 28.1861C16.241 24.3242 17.2479 20.5662 19.1162 17.2629C18.0395 15.4014 14.0133 12.7316 9.46191 12.1627C11.2721 9.74903 17.8087 7.33546 27.3363 8.97101C30.6798 7.0413 34.4997 6 38.4271 6C44.3112 6 49.9543 8.33745 54.115 12.4981L38.4271 28.1861L22.7392 43.874ZM39.0965 19.1485C41.8224 17.5419 43.3318 15.051 42.4678 13.5849C41.6037 12.1188 38.6934 12.2326 35.9674 13.8391C33.2415 15.4456 31.7321 17.9365 32.5961 19.4027C33.4602 20.8688 36.3705 20.755 39.0965 19.1485Z" fill="white"/>
</svg>
