<svg width="64" height="64" viewBox="0 0 64 64" fill="none" xmlns="http://www.w3.org/2000/svg">
<path d="M51.0399 20C53.0626 20 55.0025 20.8035 56.4328 22.2338C57.8631 23.6641 58.6666 25.604 58.6666 27.6267V37.7067C58.6666 38.7082 58.4693 39.7 58.086 40.6253C57.7028 41.5506 57.141 42.3913 56.4328 43.0996C55.7246 43.8078 54.8838 44.3695 53.9585 44.7528C53.0332 45.1361 52.0415 45.3334 51.0399 45.3334H31.9999C31.9999 46.3734 32.8533 47.8933 33.8933 47.8933H45.3332V52.3733C45.3332 54.3961 44.5297 56.3359 43.0994 57.7662C41.6692 59.1965 39.7293 60 37.7066 60H26.2932C24.2705 60 22.3307 59.1965 20.9004 57.7662C19.4701 56.3359 18.6666 54.3961 18.6666 52.3733V42.3734C18.6666 41.3731 18.864 40.3826 19.2476 39.4588C19.6312 38.535 20.1934 37.696 20.902 36.9899C21.6105 36.2838 22.4515 35.7246 23.3767 35.3442C24.3018 34.9638 25.293 34.7698 26.2932 34.7734H40.2932C41.2935 34.7734 42.284 34.5759 43.2078 34.1923C44.1316 33.8087 44.9706 33.2465 45.6767 32.5379C46.3828 31.8294 46.942 30.9884 47.3224 30.0633C47.7028 29.1381 47.8968 28.147 47.8932 27.1467V20H51.0399ZM39.6266 51.44C38.5599 51.44 37.7066 52.24 37.7066 53.8134C37.7066 55.3867 38.5599 55.7067 39.6266 55.7067C39.8752 55.7067 40.1214 55.6577 40.3511 55.5626C40.5808 55.4674 40.7896 55.3279 40.9654 55.1521C41.1412 54.9763 41.2806 54.7676 41.3758 54.5379C41.4709 54.3082 41.5199 54.062 41.5199 53.8134C41.5199 52.24 40.6666 51.44 39.6266 51.44ZM12.9599 46.6667C10.9372 46.6667 8.99733 45.8632 7.56705 44.4329C6.13677 43.0026 5.33325 41.0627 5.33325 39.04V28.96C5.33325 27.9585 5.53052 26.9667 5.9138 26.0414C6.29707 25.1161 6.85885 24.2754 7.56705 23.5672C8.99733 22.1369 10.9372 21.3334 12.9599 21.3334H31.9999C31.9999 20.2934 31.1466 18.7734 30.1066 18.7734H18.6666V14.2934C18.6666 12.2706 19.4701 10.3308 20.9004 8.90049C22.3307 7.47021 24.2705 6.66669 26.2932 6.66669H37.7066C38.7081 6.66669 39.6999 6.86396 40.6252 7.24723C41.5505 7.63051 42.3912 8.19228 43.0994 8.90049C43.8077 9.60869 44.3694 10.4494 44.7527 11.3748C45.136 12.3001 45.3332 13.2918 45.3332 14.2934V24.2934C45.3333 25.2936 45.1358 26.2841 44.7522 27.2079C44.3686 28.1317 43.8064 28.9707 43.0978 29.6768C42.3893 30.3829 41.5483 30.9421 40.6232 31.3225C39.698 31.7029 38.7069 31.8969 37.7066 31.8934H23.7066C22.7063 31.8933 21.7158 32.0908 20.792 32.4744C19.8682 32.858 19.0292 33.4202 18.3231 34.1288C17.617 34.8373 17.0578 35.6783 16.6774 36.6034C16.2971 37.5286 16.1031 38.5197 16.1066 39.52V46.6667H12.9599ZM24.3733 15.2267C25.4399 15.2267 26.2932 14.4267 26.2932 12.8534C26.2932 11.28 25.4399 10.96 24.3733 10.96C23.3333 10.96 22.4799 11.28 22.4799 12.8534C22.4799 14.4267 23.3333 15.2267 24.3733 15.2267Z" fill="white"/>
</svg>
