<svg width="64" height="64" viewBox="0 0 64 64" fill="none" xmlns="http://www.w3.org/2000/svg">
<path fill-rule="evenodd" clip-rule="evenodd" d="M9.38416 10.0001H62V45.6659L53.4982 54H1V18.2275L9.38416 10V10.0001ZM17.1571 19.2583C19.1548 17.959 21.6251 17.6306 23.974 17.6514C26.2108 17.6786 28.5583 18.0641 30.412 19.3763C31.7588 20.307 32.6342 21.7438 33.2178 23.2299C34.1618 25.67 34.4391 28.3048 34.4708 30.898C34.4747 33.5095 34.3546 36.1781 33.4752 38.6661C32.8863 40.3587 31.7654 41.8617 30.2866 42.9052C31.3508 44.6002 32.4361 46.2824 33.5004 47.9776C32.1628 48.5837 30.8292 49.1937 29.4905 49.7972C28.351 47.949 27.2168 46.0968 26.0734 44.2511C24.5273 44.5003 22.9455 44.4809 21.3914 44.3121C19.5297 44.0928 17.6325 43.5347 16.1959 42.303C15.0921 41.3632 14.3989 40.0485 13.9249 38.7116C13.1485 36.4506 12.9399 34.0443 12.9043 31.6716C12.8857 29.107 13.052 26.502 13.8391 24.0411C14.4478 22.1902 15.4551 20.3433 17.1571 19.2583ZM39.8327 37.0061V28.1801H36.9068V24.6356H39.8327V19.1752H43.9442V24.6356H49.4039L49.3062 28.1803H43.9442V37.1282C43.9031 41.0927 45.4843 40.4178 49.2085 40.2238L49.4039 43.4804C43.3963 44.3539 39.6415 44.736 39.8327 37.0062V37.0061ZM17.6509 35.4487C17.1254 32.3128 16.9987 29.0681 17.7169 25.9504C18.3414 19.3143 30.3958 18.937 29.7875 28.8266C29.9381 31.0357 29.9169 33.2655 29.6066 35.4615C29.5986 42.6065 17.6429 42.5935 17.6509 35.4487Z" fill="white"/>
</svg>
