<svg width="64" height="64" viewBox="0 0 64 64" fill="none" xmlns="http://www.w3.org/2000/svg">
<path d="M3.55118 23.2276C3.55118 23.2276 2.13985 22.1957 3.83393 20.823L7.78517 17.2512C7.78517 17.2512 8.91375 16.0501 10.11 17.0965L46.5557 44.9896V58.3634C46.5557 58.3634 46.5388 60.4659 43.8732 60.2339L3.54877 23.2252L3.55118 23.2276Z" fill="white"/>
<path d="M12.9472 31.8478L3.55121 40.4801C3.55121 40.4801 2.58455 41.2051 3.55121 42.5029L7.91328 46.5145C7.91328 46.5145 8.95003 47.6383 10.4798 46.3574L20.4388 38.7256L12.9472 31.8478Z" fill="white"/>
<path d="M29.4385 31.9179L46.6693 18.6214L46.5557 5.31769C46.5557 5.31769 45.8186 2.41287 43.3657 3.9257L20.4388 25.0159L29.4385 31.9179V31.9179Z" fill="white"/>
<path d="M43.8707 60.2508C44.8712 61.2852 46.0843 60.9468 46.0843 60.9468L59.5113 54.2599C61.2296 53.0758 60.9879 51.6064 60.9879 51.6064V11.6711C60.9879 9.9166 59.2117 9.31002 59.2117 9.31002L47.573 3.63812C45.0307 2.05037 43.3656 3.9257 43.3656 3.9257C43.3656 3.9257 45.5068 2.36695 46.5556 5.3177V58.1217C46.5556 58.4842 46.4783 58.8395 46.326 59.1609C46.0191 59.7868 45.3545 60.3692 43.7595 60.1276L43.8707 60.2508V60.2508Z" fill="white"/>
</svg>
