<svg width="48" height="48" viewBox="0 0 48 48" fill="none" xmlns="http://www.w3.org/2000/svg">
<path fill-rule="evenodd" clip-rule="evenodd" d="M45.461 12.4335C45.8283 13.0573 46.0143 13.7668 45.9991 14.4859H45.9822V33.5207C45.9993 34.2237 45.8241 34.9185 45.4746 35.5336C45.0851 36.1631 44.5262 36.6767 43.8585 37.0185C37.9968 40.1664 32.1385 43.3194 26.2835 46.4773C25.5762 46.8919 24.7648 47.1074 23.9395 47.0998C23.1142 47.0923 22.3072 46.8619 21.608 46.4344C20.2001 45.6584 15.3871 43.0738 11.0283 40.7332C8.16782 39.1971 5.50288 37.766 4.12434 37.0201C3.45681 36.6788 2.89835 36.1651 2.50999 35.5352C2.16046 34.9201 1.98524 34.2253 2.00234 33.5223V14.4843C1.97661 13.7625 2.16362 13.0486 2.54121 12.4272C2.91879 11.8058 3.47113 11.303 4.1328 10.9783C5.50689 10.2348 8.15882 8.81052 11.0085 7.28007C15.3741 4.9355 20.2039 2.34165 21.6148 1.564C22.3143 1.13695 23.1215 0.907178 23.9468 0.900189C24.7721 0.893199 25.5832 1.10926 26.2903 1.5244C32.1554 4.67569 38.0177 7.82863 43.8771 10.9832C44.528 11.3207 45.0747 11.8214 45.461 12.4335ZM29.9403 27.3332C29.2053 28.6403 28.0587 29.6679 26.6791 30.2558C25.2995 30.8438 23.7643 30.9592 22.3123 30.584C20.8603 30.2089 19.5731 29.3643 18.6509 28.1817C17.7287 26.9991 17.2233 25.5448 17.2134 24.0452C17.2035 22.5456 17.6896 21.0847 18.5961 19.8901C19.5026 18.6954 20.7786 17.8338 22.2255 17.4396C23.6724 17.0453 25.209 17.1404 26.5962 17.7101C27.9835 18.2797 29.1435 19.292 29.8958 20.5894L35.8607 17.1688C34.3467 14.5704 32.0203 12.5419 29.2399 11.3958C26.4596 10.2497 23.3795 10.0495 20.4742 10.8261C17.5689 11.6027 14.9995 13.313 13.1619 15.6935C11.3242 18.0741 10.3202 20.9928 10.3045 24.0001C10.3003 26.3849 10.9265 28.7285 12.1196 30.7934C13.3266 32.8795 15.0616 34.6111 17.1502 35.8139C19.2387 37.0168 21.6071 37.6486 24.0172 37.6458C26.4274 37.6429 28.7943 37.0055 30.88 35.7977C32.9657 34.5899 34.6966 32.8543 35.8987 30.7653L29.9403 27.3332ZM37.3259 23.2377H35.7979V21.7179H34.2716V23.2377H32.7437V24.7607H34.2716V26.2787H35.7979V24.7607H37.3259V23.2377ZM43.0566 23.2377H41.5286V21.7179H40.0007V23.2377H38.4727V24.7607H40.0007V26.2787H41.5286V24.7607H43.0566V23.2377Z" fill="white"/>
</svg>
