<svg width="64" height="64" viewBox="0 0 64 64" fill="none" xmlns="http://www.w3.org/2000/svg">
<path d="M50.6667 16C51.3739 16 52.0522 15.719 52.5523 15.2189C53.0524 14.7188 53.3334 14.0406 53.3334 13.3333C53.3334 12.6261 53.0524 11.9478 52.5523 11.4477C52.0522 10.9476 51.3739 10.6666 50.6667 10.6666C49.9595 10.6666 49.2812 10.9476 48.7811 11.4477C48.281 11.9478 48 12.6261 48 13.3333C48 14.0406 48.281 14.7188 48.7811 15.2189C49.2812 15.719 49.9595 16 50.6667 16ZM50.6667 5.33331C52.7884 5.33331 54.8233 6.17617 56.3236 7.67646C57.8239 9.17675 58.6667 11.2116 58.6667 13.3333V29.3333H48V18.6666H16V29.3333H5.33337V13.3333C5.33337 11.2116 6.17623 9.17675 7.67652 7.67646C9.17681 6.17617 11.2116 5.33331 13.3334 5.33331H50.6667ZM48 48.6666C48 49.68 47.44 50.56 46.5867 51.0133L33.52 58.1866C33.0667 58.5066 32.56 58.6666 32 58.6666C31.44 58.6666 30.9067 58.5066 30.48 58.1866L17.4134 51.0133C16.9857 50.7889 16.6277 50.4514 16.3785 50.0376C16.1293 49.6239 15.9984 49.1497 16 48.6666V34.6666C16 33.6533 16.56 32.7733 17.4134 32.32L30.48 25.8133C30.9067 25.4933 31.44 25.3333 32 25.3333C32.56 25.3333 33.0667 25.4933 33.52 25.8133L46.5867 32.32C47.44 32.7733 48 33.6533 48 34.6666V48.6666ZM32 31.0666L24.1067 34.6666L32 38.9333L39.8934 34.6666L32 31.0666ZM21.3334 47.0933L29.3334 51.44V43.5466L21.3334 39.2266V47.0933ZM42.6667 47.0933V39.2266L34.6667 43.5466V51.44L42.6667 47.0933Z" fill="white"/>
</svg>
