<svg width="64" height="64" viewBox="0 0 64 64" fill="none" xmlns="http://www.w3.org/2000/svg">
<path d="M40.8853 23.1147C43.1954 23.0453 45.3876 22.079 46.997 20.4204C48.6065 18.7619 49.5067 16.5417 49.5067 14.2307C49.5067 11.9196 48.6065 9.69939 46.997 8.04089C45.3876 6.38238 43.1954 5.416 40.8853 5.34667H23.1147C20.8046 5.416 18.6124 6.38238 17.003 8.04089C15.3935 9.69939 14.4933 11.9196 14.4933 14.2307C14.4933 16.5417 15.3935 18.7619 17.003 20.4204C18.6124 22.079 20.8046 23.0453 23.1147 23.1147C20.7844 23.155 18.5633 24.1091 16.9297 25.7712C15.296 27.4334 14.3806 29.6708 14.3806 32.0013C14.3806 34.3319 15.296 36.5693 16.9297 38.2314C18.5633 39.8936 20.7844 40.8476 23.1147 40.888C20.7958 40.9448 18.5911 41.9059 16.9711 43.566C15.3512 45.2261 14.4444 47.4538 14.4444 49.7733C14.4444 52.0929 15.3512 54.3205 16.9711 55.9806C18.5911 57.6408 20.7958 58.6019 23.1147 58.6587C25.4712 58.6573 27.7308 57.7203 29.3969 56.0537C31.063 54.3871 31.9993 52.1272 32 49.7707V23.1147H40.8853Z" fill="white"/>
<path d="M40.8853 40.8853C45.7926 40.8853 49.7707 36.9072 49.7707 32C49.7707 27.0928 45.7926 23.1147 40.8853 23.1147C35.9781 23.1147 32 27.0928 32 32C32 36.9072 35.9781 40.8853 40.8853 40.8853Z" fill="white"/>
</svg>
