<svg width="64" height="64" viewBox="0 0 64 64" fill="none" xmlns="http://www.w3.org/2000/svg">
<path fill-rule="evenodd" clip-rule="evenodd" d="M3.97241 5.98881V53.1994H14.4991V34.7245H21.9422V27.4409H14.4991V19.5794H32.8348V6.01539L3.97241 5.98881Z" fill="white"/>
<path fill-rule="evenodd" clip-rule="evenodd" d="M50.8306 20.0591L44.7075 23.5721L42.0035 22.6338L39.4238 16.0407L35.3656 16.254L33.5146 23.0716L30.924 24.3122L24.4626 21.4857L21.7335 24.5184L25.2466 30.6415L24.2866 33.3375L17.6935 35.9173L17.9284 39.9833L24.7461 41.8343L25.9867 44.4249L23.1385 50.8784L26.1712 53.6075L32.2943 50.0945L35.012 51.0624L37.5701 57.6476L41.6578 57.4206L43.4871 50.595L46.0777 49.3544L52.5529 52.2105L55.282 49.1778L51.7689 43.0547L52.7152 40.3291L59.3003 37.771L59.095 33.6912L52.2694 31.8619L51.0288 29.2713L53.8633 22.7882L50.8306 20.0591ZM41.66 30.1003L42.917 30.8296L44.006 31.8169L44.8778 32.9953L45.505 34.3054L45.8737 35.7176L45.9348 37.165L45.7258 38.6119L45.2487 39.9856L44.4898 41.2563L43.532 42.3315L42.3537 43.2034L41.0436 43.8305L39.6314 44.1993L38.1761 44.2821L36.7291 44.073L35.3555 43.596L34.0848 42.8371L33.0174 41.8576L32.1377 40.701L31.5105 39.3909L31.1497 37.9569L31.0669 36.5017L31.2759 35.0547L31.753 33.6811L32.504 32.432L33.4697 31.3351L34.648 30.4632L35.9581 29.8361L37.3921 29.4753L38.8394 29.4142L40.2864 29.6232L41.66 30.1003Z" fill="white"/>
</svg>
