<svg width="64" height="64" viewBox="0 0 64 64" fill="none" xmlns="http://www.w3.org/2000/svg">
<g clip-path="url(#clip0_1_40)">
<path d="M52.928 4.36267C52.6453 4.32 52.32 4.648 52.064 5.42133C51.6453 6.67467 49.2026 13.9627 37.3866 16.9573C38.976 18.3227 39.9893 20.2693 39.9893 22.448C39.9893 26.5733 36.4053 29.9147 31.9893 29.9147C27.576 29.9147 23.9973 26.5707 23.9946 22.448C23.9946 20.84 24.5493 19.36 25.4746 18.1387C17.1146 17.28 13.5013 9.81067 13.5013 9.81067L13.2453 20.912C13.1786 22.416 13.2213 23.8747 12.5253 25.2747C12.4815 25.2103 12.437 25.1463 12.392 25.0827C11.4111 23.7178 10.1769 22.5791 8.83226 21.7985C7.48764 21.0178 6.08768 20.6273 4.79463 20.672C3.77614 20.7072 2.85325 21.0115 2.09329 21.5627C0.738289 22.5431 -0.0147852 24.2444 -0.000282633 26.2923C0.0142199 28.3401 0.795111 30.5669 2.17063 32.4827C3.30984 34.0682 4.78637 35.3424 6.37242 36.1087C7.95846 36.875 9.56587 37.0907 10.9466 36.7227C18.9386 42.6427 33.5653 47.784 43.5626 41.7493L38.1626 37.4053C35.3253 38.3253 31.2186 38.312 26.4373 36.6187C34.1706 38.1707 38.3573 36.4773 40.6613 34.6933C40.0533 33.904 38.768 33.2907 38.768 33.2907C38.768 33.2907 40.2693 33.576 41.248 34.6133C41.64 35.0267 41.776 35.6453 41.8293 36.3547C43.304 37.1493 44.984 38.104 46.8293 39.1867C52.3226 33.6933 55.504 23.3653 53.5493 5.54133C53.456 4.824 53.2106 4.408 52.928 4.36267V4.36267ZM18.28 18.9227C21.0826 18.92 23.3546 21.0427 23.3546 23.6613C23.3546 26.2747 21.08 28.3973 18.28 28.3947C15.48 28.3947 13.2133 26.2747 13.2133 23.6613C13.2133 21.0453 15.48 18.9227 18.28 18.92V18.9227ZM33.6826 20.208C33.2186 20.2077 32.7591 20.2987 32.3303 20.4759C31.9015 20.6532 31.5117 20.9132 31.1834 21.241C30.8551 21.5689 30.5945 21.9582 30.4166 22.3867C30.2387 22.8153 30.147 23.2747 30.1466 23.7387C30.1463 24.2027 30.2373 24.6622 30.4146 25.091C30.5918 25.5198 30.8518 25.9095 31.1796 26.2379C31.5075 26.5662 31.8968 26.8268 32.3253 27.0047C32.7539 27.1826 33.2133 27.2743 33.6773 27.2747C34.6144 27.2754 35.5134 26.9038 36.1765 26.2417C36.8396 25.5795 37.2126 24.6811 37.2133 23.744C37.214 22.8069 36.8424 21.9079 36.1803 21.2448C35.5182 20.5816 34.6197 20.2087 33.6826 20.208V20.208ZM4.50396 21.912C4.50574 21.912 4.50752 21.912 4.50929 21.912C4.52796 21.9118 4.54663 21.9118 4.56529 21.912C4.90356 21.9117 5.23857 21.9769 5.55112 22.104C5.86367 22.2311 6.14761 22.4175 6.38668 22.6526C6.62574 22.8877 6.81522 23.1668 6.94425 23.474C7.07329 23.7812 7.13934 24.1104 7.13863 24.4427C7.13863 24.7745 7.07205 25.1031 6.94269 25.4097C6.81334 25.7162 6.62374 25.9947 6.38475 26.2293C6.14576 26.4638 5.86206 26.6498 5.54986 26.7765C5.23767 26.9033 4.9031 26.9683 4.56529 26.968C3.88444 26.9666 3.23195 26.6999 2.751 26.2265C2.27006 25.7531 1.99996 25.1115 1.99996 24.4427C1.99762 23.7823 2.25871 23.1473 2.72727 22.6737C3.19584 22.2002 3.83459 21.9258 4.50663 21.9093L4.50396 21.912ZM19.328 22.24C19.0338 22.2435 18.7432 22.3049 18.4728 22.4207C18.2024 22.5365 17.9574 22.7045 17.7519 22.9149C17.5463 23.1254 17.3843 23.3743 17.2749 23.6474C17.1656 23.9205 17.1111 24.2125 17.1146 24.5067C17.1181 24.8008 17.1795 25.0914 17.2953 25.3618C17.4111 25.6323 17.5791 25.8772 17.7896 26.0828C18 26.2883 18.2489 26.4504 18.5221 26.5597C18.7952 26.669 19.0871 26.7235 19.3813 26.72C19.9754 26.7129 20.5423 26.4701 20.9574 26.0451C21.3725 25.62 21.6017 25.0474 21.5946 24.4533C21.5876 23.8592 21.3448 23.2923 20.9197 22.8772C20.4946 22.4621 19.922 22.2329 19.328 22.24V22.24ZM41.3546 35.4773C41.24 35.6187 41.08 35.7413 40.9386 35.8693L41.4986 36.176C41.4533 35.9093 41.4106 35.616 41.3546 35.4773ZM39.888 35.744L37.9333 36.7067L38.0933 36.84L38.6213 37.2587L43.9386 41.5413L43.9786 41.5733C45.6933 42.9444 47.4286 44.2894 49.184 45.608C49.1636 45.7197 49.1564 45.8333 49.1626 45.9467L49.856 45.84L50.1306 46.2453L56.3093 50.1707C55.9893 51.264 56.136 52.712 56.8613 54.056C58.968 57.9627 64 59.64 64 59.64C61.944 54.392 63.4426 50.1227 59.3866 48.6187C58.7413 48.3787 58.1786 48.3707 57.7093 48.5307L52.2506 43.4773L51.7866 43.3387L51.72 42.64C51.6093 42.6838 51.5023 42.7365 51.4 42.7973C50.584 42.104 49.568 41.3653 48.4933 40.624C44.856 38.3973 42.4746 37.1573 39.8853 35.744H39.888Z" fill="white"/>
</g>
<defs>
<clipPath id="clip0_1_40">
<rect width="64" height="64" fill="white"/>
</clipPath>
</defs>
</svg>
