<svg width="64" height="64" viewBox="0 0 64 64" fill="none" xmlns="http://www.w3.org/2000/svg">
<path d="M6 6V58H58V6H6ZM47.403 10.267C50.913 8.24352 55.3242 10.7866 55.3242 14.8338C55.3242 18.881 50.913 21.4242 47.403 19.4006C43.893 17.377 43.893 12.2906 47.403 10.267V10.267ZM28.6759 52.2208C29.1111 50.3477 28.3346 49.3029 26.8289 46.9439L19.2038 36.5484V47.0757C19.2038 49.5207 19.6963 51.2357 20.6814 52.2208H8.28059C9.57094 50.7786 9.79438 49.9517 9.75781 47.1021V18.0527C9.7573 15.1684 9.62436 14.4477 8.28059 12.9341H20.6814C19.6962 13.9192 19.2038 15.6254 19.2038 18.0528V27.7358L26.7761 18.1582C28.2612 16.2235 29.5335 14.3431 28.9661 12.9342H42.1847C39.6976 14.5799 38.4116 16.496 36.2746 19.1082L26.3539 31.4561L38.2006 47.7618C39.6019 49.634 41.1896 51.5282 42.2374 52.2208H28.6759ZM44.2428 52.2208C45.1334 51.1673 45.5023 50.5953 45.4564 47.577V27.9469C45.5147 25.5421 45.3697 24.6287 44.2692 23.356H54.6383V47.577C54.665 50.1644 54.6775 50.8406 55.852 52.2208H44.2428V52.2208Z" fill="white"/>
</svg>
