<svg width="64" height="64" viewBox="0 0 64 64" fill="none" xmlns="http://www.w3.org/2000/svg">
<path d="M51.801 12.7244C51.0358 12.339 50.2028 12.1041 49.348 12.0328C49.1246 12.0187 48.902 12.0706 48.7082 12.1819L45.2616 13.8313C42.0506 11.6525 38.3192 10.3526 34.4424 10.0622C30.5657 9.77185 26.6804 10.5013 23.1772 12.1771C19.674 13.853 16.6766 16.4162 14.4862 19.609C12.2958 22.8018 10.9898 26.5116 10.6995 30.3653L7.1009 32.0783L6.62709 32.3128L6.6151 32.3267C5.74035 32.9206 5.03944 33.7341 4.58363 34.6846C4.12783 35.6351 3.93341 36.6886 4.02014 37.738C4.07383 40.5349 4.86449 43.2689 6.31322 45.6672C8.73625 49.8405 12.5107 52.7021 15.7095 52.7021C16.5349 52.6927 17.3429 52.465 18.0505 52.0423V52.0125L20.9733 50.5996C24.2459 52.6546 28.0035 53.8205 31.871 53.9809C35.7386 54.1412 39.5808 53.2904 43.0141 51.5134C46.4475 49.7364 49.3519 47.0953 51.4375 43.8538C53.5231 40.6122 54.7169 36.8836 54.8997 33.0402L57.5267 31.5577L57.5667 31.5298C58.3107 30.9751 58.9105 30.2515 59.316 29.4194L59.3619 29.2922C59.8087 28.1968 60.025 27.022 59.9977 25.8403C59.782 22.9874 58.8782 20.2281 57.3628 17.7959C55.9532 15.6793 54.0437 13.9381 51.801 12.7244ZM40.3896 20.5145C42.3388 19.5009 43.4143 18.1834 43.4203 16.8022C43.4203 18.1933 42.3428 19.489 40.3876 20.5045M19.316 49.437L19.26 49.5662C18.9266 50.3049 18.3742 50.9247 17.6767 51.3428H17.6607C17.0644 51.6768 16.3898 51.8475 15.7055 51.8377C12.7686 51.8377 9.25404 49.1827 6.95896 45.23C5.57696 42.9679 4.8185 40.384 4.75984 37.738C4.67729 36.8216 4.83673 35.8996 5.22241 35.0631C5.60808 34.2267 6.20665 33.5047 6.95896 32.9686L7.42677 32.7441L7.51074 32.7142C7.53926 32.7016 7.56866 32.691 7.5987 32.6824C7.62606 32.6714 7.65411 32.6621 7.68267 32.6546L7.77663 32.6248L7.8566 32.603L7.95656 32.5771L8.03653 32.5612L8.14249 32.5394L8.22245 32.5255L8.33041 32.5096H8.41838L8.52833 32.4976H9.41797L9.54392 32.5096H9.6179L9.75384 32.5294H9.81781L9.96975 32.5553L10.0417 32.5712L10.1837 32.603L10.2536 32.6189L10.4016 32.6566C10.5515 32.6904 11.4292 33.0163 11.4292 33.0163C14.0939 34.3404 16.2821 36.4503 17.6947 39.0576C18.1293 39.7999 18.5081 40.573 18.8282 41.3707C19.1396 42.1343 19.3877 42.9219 19.5699 43.7257C19.5748 43.7629 19.5835 43.7995 19.5959 43.8349C19.9938 45.4276 19.9897 47.0932 19.5839 48.6839C19.5839 48.6839 19.354 49.3238 19.316 49.4132M23.8642 48.356L21.0213 49.7172L20.2476 50.0869L19.6479 50.371C19.6659 50.3417 19.6833 50.3119 19.6999 50.2816L19.7358 50.22C19.7958 50.1147 19.8538 50.0034 19.9098 49.8901H19.9258L19.9418 49.8583C19.9977 49.7371 20.0517 49.6159 20.1017 49.4887C20.1337 49.4092 20.1617 49.3258 20.1917 49.2423L20.2096 49.1827C20.6204 47.4014 20.6662 45.5561 20.3444 43.7569C20.0225 41.9576 19.3397 40.2412 18.3364 38.7098C16.8017 35.8581 14.3722 33.5826 11.4172 32.2293L11.1253 32.122L10.8474 32.0326L10.6715 31.9829L10.5475 31.9491L10.4476 31.9233L10.2476 31.8776L10.1317 31.8538L9.93177 31.818L9.73185 31.7882L9.6019 31.7703H9.53193L10.6975 31.2139L11.4552 30.8502L13.4164 29.9142C13.8919 29.7315 14.398 29.6398 14.9078 29.6439C17.8466 29.6439 21.3672 32.3029 23.6643 36.2595C25.0102 38.472 25.767 40.9888 25.8634 43.5726C25.9545 44.4738 25.8229 45.3834 25.4801 46.2225C25.1372 47.0616 24.5935 47.8049 23.8962 48.3878M28.7302 21.7704C27.4894 21.5242 26.2882 21.111 25.1597 20.5423C25.0402 20.4823 24.9241 20.4159 24.8118 20.3435C24.4864 20.16 24.1738 19.9549 23.8762 19.7295C23.3766 19.4113 22.9584 18.9819 22.6547 18.4752C22.3511 17.9684 22.1704 17.3984 22.1269 16.8102C22.1269 15.4191 23.2044 14.1035 25.1597 13.0881C27.5396 11.9572 30.1533 11.397 32.7906 11.4525C35.4279 11.397 38.0416 11.9572 40.4215 13.0881C41.1246 13.4402 41.7697 13.8965 42.3348 14.4414C42.5141 14.6192 42.6786 14.8113 42.8266 15.0157L43.1964 15.6596V15.6794C43.2713 15.8479 43.3302 16.0228 43.3724 16.2021V16.2379C43.3756 16.2714 43.3816 16.3047 43.3904 16.3372C43.3904 16.371 43.4063 16.4267 43.4123 16.4724C43.4096 16.4262 43.4029 16.3803 43.3924 16.3352C43.3961 16.3813 43.4027 16.4271 43.4123 16.4724V16.524C43.422 16.6138 43.4267 16.704 43.4263 16.7943C43.4263 18.1854 42.3448 19.485 40.3916 20.4986C38.0082 21.6186 35.3941 22.1685 32.7586 22.1043L32.7206 22.1321H31.909C31.7694 22.1351 31.6299 22.1291 31.4911 22.1142H31.2672C31.0756 22.1027 30.8843 22.0868 30.6934 22.0665H30.6515C30.4425 22.0444 30.2339 22.0192 30.0257 21.991L28.7302 21.7704ZM38.5843 40.6871C38.9582 39.1427 39.5577 37.6611 40.3636 36.2893C42.5627 32.4917 45.9453 29.9301 48.7602 29.9301C49.4184 29.92 50.0673 30.0854 50.6395 30.409C51.4719 30.9141 52.0908 31.7032 52.3808 32.6288C52.4623 32.8669 52.5291 33.1098 52.5807 33.3561L52.7066 34.1232C52.7403 34.4129 52.759 34.7041 52.7626 34.9956C52.7088 37.5376 51.9828 40.0208 50.6574 42.1955C48.4583 45.9951 45.0737 48.5547 42.2608 48.5547C41.6029 48.5645 40.9542 48.3999 40.3816 48.0778C39.7018 47.6752 39.1641 47.0733 38.8422 46.3548C38.6764 45.9994 38.5484 45.6278 38.4603 45.2459C38.329 44.6701 38.2619 44.0816 38.2604 43.4912C38.2543 42.8635 38.3025 42.2366 38.4044 41.6172L38.5843 40.6871ZM58.6942 29.0497L58.6482 29.1769C58.2971 29.8675 57.7909 30.4685 57.1688 30.9337L54.9557 32.1817L54.9117 32.2075V32.0008C54.9088 28.5676 54.0989 25.1826 52.5467 22.1157C50.9945 19.0487 48.7428 16.3847 45.9713 14.3361H45.9893L49.154 12.8218C49.2263 12.8023 49.3011 12.7936 49.376 12.7959C50.1276 12.8636 50.8586 13.0777 51.5271 13.4259C53.6545 14.5825 55.4629 16.2416 56.793 18.2569C58.1895 20.5628 59.0316 23.1579 59.254 25.8403C59.2802 26.9405 59.076 28.0342 58.6542 29.0517" fill="white"/>
</svg>
