<svg width="64" height="64" viewBox="0 0 64 64" fill="none" xmlns="http://www.w3.org/2000/svg">
<path d="M48.9922 7.01729C55.3094 8.12254 57.1063 12.4633 56.9672 17.0164L57 16.9487L54.1609 54.4531L17.2219 57C14.1547 56.8679 7.30937 56.5897 7.00156 46.9695L10.4281 40.6808L16.3031 54.4861L17.3531 56.9403L23.1953 37.7723L23.1313 37.7895L23.1641 37.7219L42.4438 43.9226L39.5375 32.5322L37.4797 24.3584L55.8469 23.1636L54.5703 22.0992L41.3781 11.2748L49.0031 7L48.9922 7.01729ZM7 46.8626V46.9113V46.8547V46.8626ZM17.6859 17.4817C25.1063 10.072 34.6781 5.69824 38.3563 9.43216C42.025 13.1598 38.1359 22.2313 30.7062 29.6252C23.2828 37.0349 13.8266 41.6477 10.1578 37.92C6.47812 34.2034 10.2469 24.8914 17.6844 17.4817H17.6859Z" fill="white"/>
</svg>
