<svg width="64" height="64" viewBox="0 0 64 64" fill="none" xmlns="http://www.w3.org/2000/svg">
<path d="M61.5884 31.264L59.0656 29.7013C59.0501 29.457 59.0273 29.2132 58.9973 28.9703L61.1632 26.9519C61.2695 26.8497 61.3484 26.7224 61.3926 26.5817C61.4369 26.441 61.445 26.2914 61.4163 26.1467C61.3875 26.002 61.3228 25.8669 61.2282 25.7538C61.1335 25.6406 61.012 25.5532 60.8746 25.4994L58.1051 24.4684C58.039 24.2263 57.9675 23.9857 57.8906 23.7468L59.6085 21.3544C59.6969 21.2351 59.753 21.0949 59.7713 20.9475C59.7896 20.8001 59.7695 20.6505 59.7129 20.5131C59.6564 20.3758 59.5654 20.2554 59.4486 20.1636C59.3319 20.0718 59.1934 20.0117 59.0467 19.9892L56.1291 19.5126C56.0209 19.2943 55.9013 19.0778 55.7855 18.8595L57.0099 16.1708C57.0722 16.0367 57.0987 15.8887 57.0868 15.7412C57.0748 15.5938 57.0247 15.452 56.9415 15.3297C56.8586 15.2076 56.7462 15.1083 56.6149 15.041C56.4835 14.9736 56.3374 14.9404 56.1898 14.9443L53.2229 15.0525C53.0736 14.8562 52.9185 14.6643 52.7579 14.4772L53.4412 11.5987C53.4747 11.4542 53.4709 11.3036 53.4301 11.161C53.3893 11.0185 53.3129 10.8887 53.208 10.7838C53.1032 10.679 52.9734 10.6025 52.8309 10.5617C52.6884 10.5209 52.5378 10.5171 52.3934 10.5506L49.5157 11.2341C49.3295 11.0724 49.1376 10.9172 48.9406 10.7689L49.0488 7.80117C49.0549 7.65335 49.0229 7.50645 48.9559 7.37453C48.889 7.24261 48.7893 7.1301 48.6664 7.04777C48.5435 6.96544 48.4016 6.91606 48.2541 6.90435C48.1067 6.89265 47.9587 6.91901 47.8244 6.98091L45.1365 8.2056C44.9182 8.08978 44.7018 7.97016 44.4741 7.86193L43.9976 4.94356C43.9731 4.79787 43.912 4.66082 43.8199 4.54533C43.7278 4.42985 43.6078 4.33973 43.4712 4.2835C43.3346 4.22726 43.186 4.20675 43.0393 4.2239C42.8926 4.24105 42.7527 4.2953 42.6328 4.38153L40.241 6.09989C40.0038 6.02204 39.7646 5.95369 39.5292 5.88533L38.489 3.12646C38.4376 2.98843 38.3521 2.86572 38.2403 2.76983C38.1286 2.67393 37.9943 2.60799 37.8501 2.5782C37.7059 2.5484 37.5565 2.55573 37.4159 2.59948C37.2754 2.64324 37.1482 2.72199 37.0464 2.82835L35.0285 5.00621C34.7819 4.9735 34.5344 4.94754 34.2863 4.92837L32.7355 2.41443C32.6587 2.2879 32.5505 2.1833 32.4215 2.11072C32.2925 2.03813 32.147 2 31.999 2C31.851 2 31.7055 2.03813 31.5765 2.11072C31.4475 2.1833 31.3393 2.2879 31.2625 2.41443L29.7003 4.92837C29.4516 4.94545 29.2067 4.97583 28.9694 5.00621L26.9516 2.82835C26.8495 2.72074 26.7217 2.64093 26.5802 2.59645C26.4387 2.55196 26.2881 2.54427 26.1428 2.5741C25.9975 2.60393 25.8622 2.6703 25.7497 2.76694C25.6371 2.86358 25.551 2.98731 25.4995 3.12646L24.4688 5.88533C24.2239 5.95369 23.9961 6.03154 23.7475 6.09989L21.3557 4.38153C21.2358 4.2953 21.0959 4.24105 20.9492 4.2239C20.8025 4.20675 20.6539 4.22726 20.5173 4.2835C20.3807 4.33973 20.2607 4.42985 20.1686 4.54533C20.0765 4.66082 20.0154 4.79787 19.9909 4.94356L19.5144 7.86193C19.2962 7.97016 19.0817 8.08978 18.8634 8.2056L16.1736 6.98091C16.0393 6.91901 15.8913 6.89265 15.7438 6.90435C15.5964 6.91606 15.4545 6.96544 15.3316 7.04777C15.2087 7.1301 15.109 7.24261 15.042 7.37453C14.9751 7.50645 14.9431 7.65335 14.9492 7.80117L15.0479 10.7689C14.86 10.9189 14.6702 11.0746 14.4842 11.2341L11.5989 10.5506C11.4549 10.5175 11.3048 10.5218 11.1628 10.5629C11.0209 10.604 10.8918 10.6806 10.7877 10.7855C10.6836 10.8904 10.6079 11.0201 10.5678 11.1624C10.5278 11.3047 10.5246 11.4548 10.5587 11.5987L11.2325 14.4772C11.0731 14.6651 10.9269 14.8512 10.7675 15.0525L7.81196 14.9443C7.66436 14.9387 7.5178 14.971 7.38621 15.0381C7.25463 15.1052 7.1424 15.2049 7.0602 15.3276C6.97801 15.4504 6.92859 15.5922 6.91664 15.7394C6.90469 15.8867 6.93061 16.0345 6.99193 16.1689L8.22007 18.8576L7.86321 19.5107L4.94755 19.9873C4.80229 20.0125 4.66576 20.074 4.55069 20.1662C4.43562 20.2584 4.34576 20.3782 4.28948 20.5145C4.23319 20.6508 4.21232 20.7991 4.22881 20.9456C4.2453 21.0922 4.29862 21.2322 4.38378 21.3525L6.11495 23.7449C6.03664 23.9837 5.96385 24.2243 5.89666 24.4665L3.12716 25.4975C2.98891 25.5503 2.86634 25.6373 2.77094 25.7505C2.67555 25.8636 2.61047 25.9992 2.58182 26.1444C2.55316 26.2896 2.56187 26.4397 2.60712 26.5806C2.65238 26.7216 2.7327 26.8487 2.84053 26.95L5.0045 28.9684C4.97461 29.2113 4.95182 29.4551 4.93616 29.6994L2.41533 31.2621C2.28871 31.3377 2.18387 31.4449 2.11107 31.5732C2.03827 31.7015 2 31.8465 2 31.994C2 32.1416 2.03827 32.2866 2.11107 32.4149C2.18387 32.5432 2.28871 32.6504 2.41533 32.726L4.93616 34.2887C4.95325 34.5374 4.97413 34.7843 5.0045 35.0197L2.84053 37.0476C2.73195 37.1476 2.65089 37.2739 2.60513 37.4144C2.55938 37.5548 2.55046 37.7046 2.57923 37.8495C2.60801 37.9944 2.67351 38.1294 2.76946 38.2417C2.8654 38.3539 2.98858 38.4396 3.12716 38.4906L5.89666 39.5311C5.96499 39.7666 6.03333 40.0039 6.11495 40.2431L4.38378 42.6356C4.29747 42.7562 4.24343 42.8968 4.2268 43.0442C4.21017 43.1916 4.23149 43.3408 4.28875 43.4776C4.34601 43.6144 4.43729 43.7343 4.55393 43.8259C4.67057 43.9174 4.80868 43.9776 4.95514 44.0008L7.8727 44.4773C7.9809 44.6957 8.10049 44.9122 8.22007 45.1305L6.99193 47.8191C6.93061 47.9536 6.90469 48.1014 6.91664 48.2487C6.92859 48.3959 6.97801 48.5377 7.0602 48.6604C7.1424 48.7832 7.25463 48.8829 7.38621 48.95C7.5178 49.0171 7.66436 49.0494 7.81196 49.0438L10.7675 48.9451C10.9269 49.135 11.0731 49.323 11.2439 49.509L10.5606 52.397C10.5274 52.5403 10.5312 52.6898 10.5718 52.8312C10.6123 52.9726 10.6882 53.1014 10.7923 53.2053C10.8964 53.3093 11.0253 53.3849 11.1667 53.4252C11.3082 53.4655 11.4576 53.4691 11.6008 53.4356L14.4861 52.7616C14.674 52.9211 14.8638 53.0673 15.0612 53.2268L14.953 56.1831C14.9459 56.3313 14.9771 56.4788 15.0437 56.6113C15.1104 56.7439 15.2102 56.8569 15.3334 56.9394C15.4566 57.022 15.5991 57.0713 15.747 57.0825C15.8949 57.0937 16.0431 57.0664 16.1774 57.0034L18.8672 55.7787C19.0855 55.8945 19.2999 56.0141 19.5182 56.1338L20.0042 59.0521C20.0282 59.1968 20.0886 59.3329 20.1797 59.4478C20.2708 59.5626 20.3897 59.6524 20.5251 59.7086C20.6604 59.7648 20.8079 59.7857 20.9536 59.7691C21.0992 59.7526 21.2383 59.6993 21.3576 59.6142L23.7589 57.8844C23.9961 57.9622 24.2353 58.0306 24.4707 58.099L25.5109 60.8692C25.5608 61.0087 25.6459 61.133 25.758 61.2298C25.8701 61.3267 26.0053 61.3929 26.1506 61.4219C26.2958 61.451 26.4461 61.4419 26.5868 61.3957C26.7275 61.3494 26.8539 61.2674 26.9535 61.1578L28.9713 58.9914C29.2162 59.0217 29.4554 59.0521 29.7022 59.0692L31.2644 61.5908C31.3423 61.7159 31.4508 61.8192 31.5796 61.8908C31.7085 61.9624 31.8535 62 32.0009 62C32.1483 62 32.2933 61.9624 32.4222 61.8908C32.551 61.8192 32.6595 61.7159 32.7374 61.5908L34.2996 59.0692C34.5483 59.0521 34.7856 59.0217 35.0304 58.9914L37.0482 61.1578C37.1489 61.2654 37.2754 61.3455 37.4157 61.3905C37.556 61.4355 37.7054 61.444 37.8499 61.4151C37.9943 61.3862 38.129 61.3209 38.2412 61.2254C38.3534 61.1298 38.4393 61.0073 38.4909 60.8692L39.5311 58.099C39.7665 58.0306 40.0038 57.9622 40.2429 57.8844L42.6347 59.6142C42.7543 59.7015 42.8943 59.7566 43.0414 59.7743C43.1884 59.7921 43.3375 59.7717 43.4744 59.7154C43.6113 59.659 43.7315 59.5684 43.8235 59.4523C43.9154 59.3361 43.976 59.1984 43.9995 59.0521L44.476 56.1338C44.7037 56.0141 44.922 55.8964 45.1384 55.7787L47.8263 57.0034C47.9607 57.0642 48.1084 57.0897 48.2554 57.0775C48.4024 57.0653 48.5439 57.0158 48.6664 56.9337C48.789 56.8516 48.8886 56.7395 48.9558 56.6082C49.023 56.4769 49.0557 56.3306 49.0507 56.1831L48.9425 53.2268C49.1418 53.0673 49.3297 52.9211 49.5062 52.7616L52.3934 53.4356C52.5369 53.4685 52.6863 53.4646 52.8279 53.4242C52.9694 53.3838 53.0984 53.3083 53.203 53.2047C53.3075 53.101 53.3842 52.9727 53.4258 52.8315C53.4675 52.6903 53.4728 52.5408 53.4412 52.397L52.7579 49.509C52.9173 49.3211 53.0749 49.135 53.2229 48.9451L56.1898 49.0438C56.3376 49.0499 56.4845 49.018 56.6164 48.951C56.7482 48.884 56.8607 48.7843 56.943 48.6614C57.0253 48.5385 57.0747 48.3965 57.0864 48.249C57.0981 48.1015 57.0718 47.9535 57.0099 47.8191L55.7855 45.1305C55.9013 44.9122 56.0209 44.6957 56.1291 44.4773L59.0467 44.0008C59.1923 43.9763 59.3293 43.9151 59.4448 43.823C59.5602 43.7308 59.6503 43.6108 59.7065 43.4742C59.7627 43.3376 59.7833 43.1889 59.7661 43.0422C59.749 42.8955 59.6947 42.7555 59.6085 42.6356L57.8906 40.2431L58.1051 39.5311L60.8632 38.4906C61.0023 38.4405 61.1262 38.3555 61.223 38.2438C61.3199 38.1321 61.3864 37.9974 61.4164 37.8526C61.4463 37.7078 61.4385 37.5577 61.3938 37.4168C61.3492 37.2758 61.2691 37.1487 61.1613 37.0476L58.9954 35.0197C59.0163 34.7843 59.0466 34.5355 59.0637 34.2887L61.5865 32.726C61.7126 32.65 61.817 32.5427 61.8895 32.4144C61.9619 32.2862 62 32.1414 62 31.994C62 31.8467 61.9619 31.7019 61.8895 31.5737C61.817 31.4454 61.7126 31.3381 61.5865 31.2621L61.5884 31.264ZM44.7303 52.1502C42.4069 51.6565 43.1491 48.1647 45.482 48.6584C45.9449 48.7581 46.3493 49.0377 46.6061 49.4356C46.863 49.8335 46.9513 50.3172 46.8516 50.7802C46.7519 51.2433 46.4724 51.6477 46.0746 51.9047C45.6768 52.1616 45.1932 52.2499 44.7303 52.1502ZM43.8799 46.3647C43.671 46.3197 43.4552 46.3164 43.245 46.3552C43.0348 46.3941 42.8343 46.4741 42.6552 46.5908C42.4761 46.7075 42.3218 46.8585 42.2014 47.0351C42.0809 47.2117 41.9965 47.4104 41.9532 47.6198L41.0516 51.7818C38.2115 53.075 35.127 53.7432 32.0066 53.7413C28.8172 53.7438 25.666 53.0485 22.7737 51.704L21.872 47.5324C21.8288 47.3231 21.7444 47.1245 21.6236 46.9481C21.5029 46.7718 21.3482 46.6212 21.1687 46.5053C20.9892 46.3894 20.7884 46.3103 20.578 46.2728C20.3677 46.2353 20.152 46.2401 19.9434 46.2869L16.2666 47.0672C15.5777 46.3652 14.9402 45.6145 14.3589 44.821H32.2837C32.483 44.821 32.6197 44.7925 32.6197 44.6027V38.2666C32.6197 38.0767 32.483 38.0482 32.2837 38.0482H27.0352V34.0229H32.7089C33.2233 34.0229 35.4784 34.1691 36.1884 37.0476C36.4161 37.9286 36.9116 40.8052 37.2457 41.7261C37.5816 42.7647 38.956 44.8191 40.4195 44.8191H49.3487C49.4575 44.8191 49.5661 44.8096 49.6733 44.7906C49.0581 45.6341 48.3811 46.4306 47.6479 47.1736L43.8799 46.3647ZM19.093 52.0704C18.6295 52.166 18.1469 52.0754 17.7496 51.8182C17.3522 51.561 17.0718 51.1579 16.9689 50.6957C16.9184 50.4664 16.9139 50.2292 16.9558 49.9981C16.9977 49.7669 17.0851 49.5464 17.213 49.3494C17.3409 49.1524 17.5067 48.9828 17.7007 48.8505C17.8948 48.7182 18.1132 48.6257 18.3432 48.5786C18.8062 48.4792 19.2896 48.5677 19.6872 48.8248C20.0849 49.0819 20.3641 49.4865 20.4636 49.9495C20.563 50.4126 20.4744 50.8962 20.2174 51.2939C19.9604 51.6917 19.556 51.971 19.093 52.0704V52.0704ZM12.2936 24.4893C12.3973 24.705 12.4567 24.9394 12.4684 25.1785C12.4801 25.4177 12.4439 25.6567 12.3618 25.8816C12.2797 26.1065 12.1535 26.3127 11.9905 26.488C11.8275 26.6634 11.6311 26.8043 11.4129 26.9026C11.1938 26.9983 10.9579 27.0494 10.7188 27.0529C10.4798 27.0564 10.2424 27.0123 10.0207 26.923C9.79887 26.8337 9.59709 26.7011 9.42711 26.533C9.25712 26.3649 9.12233 26.1645 9.03061 25.9437C8.15933 23.8095 11.2933 22.4139 12.2936 24.4911V24.4893ZM10.2075 29.4431L14.0419 27.7418C14.8638 27.3772 15.2283 26.4184 14.8638 25.5981L14.0723 23.8076H17.1872V37.8203H10.9174C10.1433 35.0998 9.90159 32.2553 10.2056 29.4431H10.2075ZM27.0428 28.0893V23.9557H34.4382C34.8235 23.9557 37.1356 24.4019 37.1356 26.1336C37.1356 27.5766 35.3569 28.0912 33.9029 28.0912L27.0428 28.0893ZM53.9348 31.807C53.9348 32.352 53.9139 32.8931 53.8759 33.4266H51.6208C51.3931 33.4266 51.3038 33.5766 51.3038 33.8045V34.8317C51.3038 37.264 49.939 37.7881 48.7318 37.9286C47.5852 38.0577 46.3191 37.452 46.1635 36.7514C45.4896 32.9539 44.364 32.1431 42.5853 30.738C44.7892 29.333 47.0822 27.2766 47.0822 24.5082C47.0822 21.5215 45.034 19.6418 43.6426 18.7228C41.6837 17.4259 39.5197 17.1715 38.9351 17.1715H15.6725C18.8856 13.5741 23.195 11.1369 27.933 10.2373L30.6816 13.1253C30.829 13.2791 31.0053 13.4023 31.2003 13.4879C31.3954 13.5736 31.6054 13.6199 31.8183 13.6243C32.0313 13.6287 32.243 13.5911 32.4414 13.5136C32.6398 13.4361 32.821 13.3203 32.9747 13.1727L36.0403 10.2354C39.1692 10.8203 42.1333 12.0797 44.7265 13.926C47.3198 15.7724 49.48 18.1615 51.0571 20.9272L48.9519 25.6741C48.7802 26.0692 48.7709 26.5161 48.9262 26.9181C49.0814 27.32 49.3887 27.6446 49.7815 27.8216L53.8266 29.6197C53.8949 30.3431 53.9253 31.0646 53.9253 31.807H53.9348ZM30.6835 7.79547C32.4014 6.15496 34.8653 8.73535 33.1436 10.3778C31.4333 11.8607 29.1289 9.43789 30.6835 7.79547ZM51.5335 24.5766C51.724 24.1451 52.0779 23.807 52.5175 23.6364C52.957 23.4659 53.4463 23.4769 53.8778 23.6671C55.3413 24.3108 55.2901 26.3956 53.8076 26.9709C52.3137 27.5424 50.8824 26.031 51.5354 24.5766H51.5335Z" fill="white"/>
</svg>
